<svg width="559" height="325" viewBox="0 0 559 325" fill="none" xmlns="http://www.w3.org/2000/svg">
<path d="M559 316.572C538.666 321.752 526.089 316.799 514.807 299.821L434.554 188.555L422.953 173.148L329.234 300.191C318.526 315.475 307.294 322.122 287.309 316.715L407.319 155.276L295.589 9.44898C314.803 5.70553 328.081 7.60877 339.87 24.8556L423.108 137.508L506.958 25.469C517.7 10.1842 529.25 4.37788 548.536 10.0078L505.214 67.5671L446.519 144.155C439.53 152.906 440.49 158.897 446.922 167.346L559 316.572ZM0.142545 152.578L9.95721 104.191C36.6845 8.43225 146.214 -31.3593 221.75 27.8091C265.893 62.6094 276.865 111.837 274.681 166.981H25.8552C22.1197 266.239 93.4091 326.143 184.294 295.582C216.174 284.851 234.952 259.832 244.352 228.536C249.123 212.852 257.013 210.398 271.725 214.881C264.216 254.026 247.27 286.725 211.458 307.19C157.953 337.823 81.5737 327.916 41.401 285.343C17.466 260.639 7.58006 229.342 3.14438 195.87C2.44423 190.336 1.04813 185.068 0 179.766C0.0922352 170.707 0.142545 161.653 0.142545 152.595V152.578ZM26.308 145.928H251.165C249.698 74.1549 205.102 23.175 144.151 22.7422C77.247 22.2171 29.205 71.9828 26.3038 145.928H26.308Z" fill="white"/>
</svg>
