<svg width="245" height="64" viewBox="0 0 245 64" fill="none" xmlns="http://www.w3.org/2000/svg">
<g clip-path="url(#clip0_303_5)">
<path fill-rule="evenodd" clip-rule="evenodd" d="M35.3558 22.8014C36.6063 22.819 37.7202 22.8684 38.4478 22.9316C41.5797 23.2037 44.5098 23.824 46.9686 24.6739C50.7254 25.9726 54.223 27.8955 57.4616 30.4425C60.1982 32.8726 62.0525 34.8604 63.0243 36.4059C63.6015 37.3237 64.6177 38.7806 65.3903 40.6871C65.6054 41.2179 65.9298 41.9864 66.2255 43.0027C66.3512 43.4347 66.5331 44.1831 66.7713 45.2478C66.9137 46.6028 66.9893 47.5628 66.9982 48.1278C67.0168 49.3047 66.8857 50.2769 66.7713 50.9769C66.646 51.7432 66.4511 52.6881 66.0246 53.7491C65.8623 54.1531 65.5426 54.7968 65.0657 55.6802C63.7048 57.645 62.2142 59.1969 60.594 60.3359C58.9739 61.4749 56.9033 62.4347 54.3823 63.2154C52.2294 63.9029 49.5984 64.0994 46.4894 63.8047C45.0821 63.6713 43.4612 63.2943 42.0574 62.8772C41.1288 62.6013 39.8082 62.0818 38.0956 61.3189L41.9132 58.2672C42.8711 58.6617 43.5736 58.9287 44.0207 59.0681C45.1785 59.4292 46.2419 59.6175 46.9686 59.7459C47.6191 59.8608 48.3995 59.9547 49.3215 59.9921C49.7911 60.0111 50.5767 60.0111 51.6782 59.9921C52.7813 59.8225 53.5585 59.6779 54.0097 59.5585C55.1907 59.2459 56.0668 58.8291 56.7349 58.4725C57.366 58.1357 58.1479 57.6704 58.9127 56.9786C59.2519 56.6718 59.7622 56.1168 60.4437 55.3134C61.3208 54.0356 61.8934 53.106 62.1615 52.5246C62.6185 51.5338 62.7879 50.5173 62.9067 49.8267C63.0467 49.0137 63.1959 47.9286 63.0243 46.6187C62.9561 46.0974 62.7432 45.2349 62.3857 44.0312C61.8134 42.3027 61.166 40.8978 60.4437 39.8164C59.3603 38.1945 58.5799 37.2022 57.8905 36.4059C57.1221 35.5183 55.9175 34.387 54.3823 33.241C53.7603 32.7766 52.7031 32.0704 51.2108 31.1225C49.771 30.3228 48.6639 29.7561 47.8897 29.4225C46.0352 28.6235 43.9611 27.9781 42.7506 27.6895C41.5201 27.3961 39.4938 27.0329 37.3939 26.9009C36.8476 26.8665 35.9147 26.7594 34.9824 26.7698C34.6518 26.7734 34.166 26.8039 33.5251 26.8611C32.7992 28.5654 31.1103 29.7601 29.1427 29.7601C26.5128 29.7601 24.3807 27.6257 24.3807 24.9927C24.3807 22.3598 26.5128 20.2254 29.1427 20.2254C30.9835 20.2254 32.5802 21.2709 33.3729 22.8012C34.2706 22.7953 34.9315 22.7954 35.3558 22.8014Z" fill="#764ABC"/>
<path fill-rule="evenodd" clip-rule="evenodd" d="M45.1671 46.7354C44.5263 47.8108 43.9264 48.7518 43.5077 49.351C41.7056 51.9304 39.7033 54.1607 37.7378 55.8674C34.7348 58.4752 31.3213 60.5462 27.4971 62.0805C24.0253 63.2382 21.3776 63.8519 19.5539 63.9217C18.471 63.9632 16.7019 64.1158 14.6655 63.8324C14.0986 63.7535 13.2713 63.6505 12.2438 63.3987C11.8071 63.2917 11.0685 63.0753 10.0279 62.7494C8.78416 62.1954 7.91555 61.7809 7.42208 61.5062C6.39428 60.9339 5.61851 60.3341 5.07001 59.8849C4.46947 59.3931 3.74932 58.7516 3.04437 57.8514C2.77596 57.5086 2.37879 56.9096 1.85286 56.0545C0.833255 53.8921 0.235823 51.8239 0.0605678 49.8497C-0.114688 47.8755 0.0903894 45.6004 0.6758 43.0244C1.15769 40.814 2.30371 38.4348 4.11387 35.8866C4.93326 34.7331 6.07022 33.5163 7.13338 32.5078C7.83666 31.8406 8.94675 30.9554 10.4637 29.852L11.195 34.6877C10.3744 35.321 9.792 35.7966 9.44772 36.1145C8.5561 36.9377 7.8612 37.7656 7.38664 38.3314C6.96182 38.838 6.49016 39.4676 5.99664 40.2483C5.74527 40.6459 5.35233 41.327 4.81782 42.2915C4.41284 43.3328 4.14918 44.0788 4.02685 44.5297C3.70663 45.71 3.62908 46.678 3.6035 47.4355C3.57933 48.1511 3.59085 49.0616 3.80698 50.0706C3.90282 50.518 4.12789 51.238 4.48219 52.2306C5.14938 53.63 5.66745 54.5912 6.0364 55.1143C6.66528 56.0059 7.46028 56.6611 7.99843 57.1094C8.63201 57.6372 9.49645 58.3091 10.7158 58.8154C11.2011 59.0168 12.054 59.2635 13.2745 59.5554C15.0566 59.9235 16.5962 60.0647 17.8933 59.9791C19.8389 59.8507 21.0879 59.6703 22.1218 59.4707C23.2743 59.2483 24.8559 58.7696 26.6156 58.0116C27.3286 57.7045 28.4685 57.141 30.0353 56.3211C31.4476 55.4726 32.4917 54.7961 33.1677 54.2917C34.7868 53.0834 36.3827 51.6078 37.238 50.7026C38.1074 49.7825 39.4353 48.2073 40.5999 46.4527C40.9029 45.9962 41.4622 45.241 41.9196 44.4275C42.0818 44.139 42.2984 43.7026 42.5695 43.1184C41.4577 41.6368 41.2686 39.5752 42.2528 37.8693C43.5683 35.5891 46.4818 34.8079 48.7604 36.1244C51.0389 37.4408 51.8196 40.3565 50.5041 42.6367C49.5834 44.2326 47.8798 45.0942 46.1591 45.0163C45.7151 45.7975 45.3844 46.3705 45.1671 46.7354Z" fill="#764ABC"/>
<path fill-rule="evenodd" clip-rule="evenodd" d="M18.1544 41.9383C17.5633 40.8352 17.0664 39.8363 16.7688 39.1688C15.4878 36.2956 14.6088 33.4304 14.1592 30.8664C13.4723 26.9489 13.4565 22.9556 14.1118 18.8866C14.9082 15.3136 15.7461 12.7273 16.6254 11.1276C17.1476 10.1777 17.9279 8.58219 19.2193 6.98202C19.5789 6.53648 20.0931 5.88012 20.8378 5.12875C21.1543 4.80938 21.7201 4.28746 22.535 3.56299C23.65 2.78175 24.4523 2.2503 24.9417 1.96864C25.9612 1.38199 26.8743 1.02558 27.5415 0.786528C28.272 0.524794 29.1921 0.237519 30.3262 0.0965431C30.758 0.0428662 31.4755 0.0106851 32.4787 0C34.8557 0.238988 36.9347 0.791544 38.7157 1.65767C40.4967 2.52379 42.3395 3.87095 44.2442 5.69915C45.8891 7.25035 47.3366 9.45798 48.5868 12.322C49.1527 13.6185 49.6093 15.2199 49.9255 16.6507C50.1347 17.5972 50.3212 19.0049 50.485 20.8736L45.9669 19.0111C45.8472 17.9814 45.7398 17.2372 45.6448 16.7783C45.3989 15.5899 45.0478 14.5678 44.8075 13.8696C44.5925 13.2445 44.2961 12.5159 43.8817 11.6909C43.6706 11.2706 43.2897 10.583 42.7389 9.62811C42.0557 8.74478 41.5525 8.13459 41.2293 7.79756C40.3834 6.91531 39.5943 6.35046 38.9587 5.93852C38.3583 5.54937 37.5726 5.0905 36.5972 4.75634C36.1646 4.60816 35.4321 4.43047 34.3996 4.22326C32.8575 4.07489 31.7675 4.02423 31.1295 4.07129C30.0421 4.15149 29.0716 4.49587 28.4105 4.7265C27.6321 4.99802 26.6115 5.39331 25.55 6.17827C25.1276 6.49062 24.4771 7.09494 23.5986 7.99121C22.3656 9.32983 21.4519 10.5773 20.8572 11.7335C19.9652 13.4679 19.4766 14.6318 19.115 15.6211C18.712 16.7238 18.3075 18.3265 18.0505 20.2255C17.9464 20.9951 17.8419 22.2626 17.7372 24.0281C17.7367 25.676 17.7783 26.9196 17.8622 27.7589C18.0633 29.7693 18.5051 31.8975 18.8399 33.0969C19.1802 34.3161 19.8455 36.2657 20.7484 38.1677C20.9834 38.6625 21.3421 39.5309 21.8033 40.3419C21.9668 40.6295 22.229 41.04 22.5898 41.5732C24.4312 41.3826 26.2942 42.2818 27.2483 44.004C28.5237 46.306 27.6924 49.2065 25.3916 50.4825C23.0907 51.7585 20.1916 50.9268 18.9162 48.6248C18.0236 47.0137 18.1629 45.1093 19.1158 43.674C18.6754 42.8911 18.3549 42.3125 18.1544 41.9383Z" fill="#764ABC"/>
<path fill-rule="evenodd" clip-rule="evenodd" d="M102.002 14.0793H116.368C117.585 14.1351 118.48 14.2066 119.051 14.2936C119.621 14.3807 120.438 14.5701 121.5 14.8619C123.055 15.4022 124.192 15.8874 124.91 16.3174C125.629 16.7474 126.55 17.4934 127.674 18.5555C128.571 19.8482 129.155 20.9176 129.425 21.7635C129.696 22.6095 129.874 23.9212 129.958 25.6987C129.819 27.4921 129.581 28.8245 129.243 29.6961C128.905 30.5677 128.158 31.7775 127.001 33.3256C126.23 34.1041 125.602 34.6533 125.114 34.9731C124.627 35.2929 123.717 35.7721 122.386 36.4106C122.887 36.7459 123.246 36.9996 123.462 37.1717C123.678 37.3437 123.963 37.6035 124.318 37.951L125.363 39.23L133.411 52.4503H124.91C124.216 52.4113 123.733 52.3263 123.462 52.1951C123.191 52.064 122.833 51.7413 122.386 51.2271L115.738 39.7141C115.331 39.119 115.024 38.7484 114.817 38.6024C114.61 38.4564 114.249 38.3558 113.733 38.3006H110.85V52.4503H102.002V14.0793ZM110.872 20.719V32.1328H115.036C119.117 31.7984 121.165 29.8567 121.178 26.3075C121.191 22.7583 119.144 20.8955 115.036 20.719H110.872Z" fill="white"/>
<path fill-rule="evenodd" clip-rule="evenodd" d="M144.857 24.7053C149.056 24.7053 152.304 26.1459 154.601 29.0271C156.897 31.9083 157.696 35.3745 156.998 39.4257C156.834 39.8345 156.631 40.0836 156.388 40.1732C156.146 40.2627 155.55 40.3085 154.601 40.3104H139.68C139.922 43.5763 141.226 45.6367 143.591 46.4915C145.686 47.2488 148.185 46.8316 151.193 45.3201C151.452 45.1902 151.865 44.9897 152.433 44.7187C152.918 44.6048 153.284 44.5632 153.532 44.5938C153.78 44.6244 154.096 44.7503 154.478 44.9714L156.998 48.2308C155.68 50.0034 153.745 51.2936 151.193 52.1014C148.642 52.9093 146.043 53.1579 143.397 52.8474C139.612 52.3501 136.67 50.8112 134.571 48.2308C132.471 45.6504 131.4 42.388 131.356 38.4435C131.293 34.887 132.414 31.7482 134.718 29.0271C137.022 26.306 140.402 24.8654 144.857 24.7053ZM139.743 35.5083H149.864C149.864 33.8989 149.421 32.6199 148.534 31.6714C147.648 30.7228 146.404 30.2889 144.804 30.3696C143.16 30.4637 141.957 30.9785 141.194 31.9141C140.431 32.8496 139.948 34.0477 139.743 35.5083Z" fill="white"/>
<path fill-rule="evenodd" clip-rule="evenodd" d="M176.97 13.0087H185.138V52.4479H179.584C178.955 52.3458 178.533 52.1318 178.316 51.806C178.1 51.4801 177.791 50.5918 177.39 49.1411C175.024 51.6458 172.296 52.9169 169.206 52.9544C166.115 52.9919 163.599 51.7208 161.657 49.1411C159.802 46.4725 158.899 42.9629 158.947 38.6125C158.996 34.2622 160.186 30.8295 162.518 28.3146C164.048 26.4164 166.277 25.2145 169.206 24.709C172.134 24.2034 174.722 24.9313 176.97 26.8926V13.0087ZM176.876 32.4697C176.187 31.6985 175.538 31.1987 174.931 30.9703C174.324 30.7419 173.37 30.6392 172.07 30.6621C169.583 30.9948 168.124 32.6835 167.695 35.7281C167.494 37.1551 167.366 38.5247 167.461 40.3699C167.504 41.2061 167.727 42.4249 168.13 44.026C168.647 45.7982 169.961 46.6767 172.07 46.6616C174.179 46.6465 175.781 45.768 176.876 44.026V32.4697Z" fill="white"/>
<path fill-rule="evenodd" clip-rule="evenodd" d="M214.223 25.15V52.5233H208.658C208.049 52.3364 207.639 52.0886 207.429 51.7801C207.218 51.4715 206.963 50.7462 206.665 49.6041C204.389 51.8228 201.74 52.9381 198.72 52.9499C195.7 52.9617 193.258 51.8465 191.394 49.6041C190.472 48.0669 189.904 46.8251 189.689 45.8789C189.474 44.9326 189.364 43.1896 189.36 40.6498V25.15H197.606V42.9111C197.707 45.0009 198.578 46.2673 200.22 46.7103C201.862 47.1534 203.786 46.4699 205.991 44.6601V25.15H214.223Z" fill="white"/>
<path fill-rule="evenodd" clip-rule="evenodd" d="M216.153 25.1268H224.663C225.114 25.2941 225.415 25.4458 225.565 25.5817C225.714 25.7176 225.904 25.9875 226.133 26.3915L230.859 34.2138L235.439 25.9734C235.718 25.6491 235.951 25.4351 236.139 25.3315C236.326 25.2279 236.604 25.1597 236.972 25.1268H244.649L235.801 37.9669L244.973 52.4843H236.62C236.116 52.3784 235.745 52.224 235.507 52.0209C235.269 51.8178 234.947 51.3824 234.543 50.7149L229.935 42.8068L225.2 51.0252C224.82 51.5845 224.523 51.9488 224.31 52.1182C224.096 52.2877 223.781 52.4097 223.363 52.4843H215.722L224.874 38.4156L216.057 25.1268H216.153Z" fill="white"/>
</g>
<defs>
<clipPath id="clip0_303_5">
<rect width="245" height="64" fill="white"/>
</clipPath>
</defs>
</svg>
