<svg width="281" height="325" viewBox="0 0 281 325" fill="none" xmlns="http://www.w3.org/2000/svg">
<g filter="url(#filter0_d_15_5)">
<g clip-path="url(#clip0_15_5)">
<g filter="url(#filter1_d_15_5)">
<g filter="url(#filter2_i_15_5)">
<path d="M277.026 162.402C277.112 143.56 254.52 125.705 219.807 114.634C227.998 77.7611 224.566 48.4259 208.899 39.0347C205.288 36.8318 201.059 35.7885 196.435 35.7887L196.376 48.7171C198.938 48.717 200.997 49.2387 202.72 50.2242C210.276 54.7458 213.484 71.9643 210.82 94.1109C210.183 99.5606 209.153 105.3 207.901 111.156C196.995 108.373 185.083 106.229 172.554 104.838C165.082 94.1131 157.327 84.3737 149.511 75.8517C167.753 58.2844 184.844 48.6597 196.432 48.6591L196.491 35.7307C181.171 35.7314 161.063 47.0955 140.695 66.808C120.506 47.2135 100.502 35.9673 85.1813 35.968L85.1222 48.8965C96.6542 48.8959 113.713 58.461 131.795 75.9106C123.957 84.4333 116.113 94.1155 108.655 104.841C96.058 106.233 84.1263 108.379 73.1942 111.22C71.9393 105.423 71.0179 99.7992 70.374 94.4076C67.8568 72.2612 71.1667 55.0425 78.7084 50.4621C80.3845 49.4185 82.5593 48.9546 85.122 48.9544L85.181 36.026C80.5014 36.0262 76.2627 37.07 72.5757 39.2732C56.8783 48.6659 53.2349 77.9435 61.1449 114.699C26.4425 125.832 3.79865 143.632 3.71285 162.416C3.62678 181.257 26.2192 199.113 60.9316 210.184C52.741 247.057 56.1724 276.392 71.8397 285.783C75.4508 287.986 79.68 289.029 84.3596 289.029C99.6799 289.028 119.787 277.664 140.156 257.952C160.345 277.546 180.349 288.793 195.669 288.792C200.349 288.792 204.588 287.748 208.274 285.545C223.972 276.152 227.615 246.874 219.705 210.118C254.296 199.044 276.94 181.186 277.026 162.402V162.402ZM204.668 123.736C202.573 131.215 199.975 138.926 197.043 146.637C194.78 141.999 192.405 137.361 189.808 132.723C187.267 128.085 184.558 123.563 181.848 119.157C189.753 120.375 197.379 121.882 204.668 123.736ZM178.871 185.481C174.49 193.308 169.999 200.729 165.344 207.628C157.04 208.382 148.625 208.789 140.158 208.789C131.745 208.789 123.335 208.384 115.093 207.689C110.501 200.79 106.022 193.427 101.712 185.659C97.5126 178.064 93.7039 170.354 90.2296 162.585C93.7191 154.816 97.6543 147.048 101.867 139.453C106.248 131.626 110.739 124.205 115.395 117.306C123.699 116.551 132.113 116.145 140.581 116.145C148.993 116.144 157.403 116.55 165.645 117.245C170.238 124.144 174.716 131.507 179.026 139.275C183.226 146.87 187.034 154.58 190.509 162.348C186.963 170.117 183.084 177.886 178.871 185.481ZM196.9 177.943C199.873 185.712 202.4 193.481 204.482 201.017C197.176 202.873 189.481 204.438 181.509 205.656C184.259 201.192 187.01 196.612 189.594 191.916C192.178 187.278 194.594 182.582 196.9 177.943ZM140.127 239.806C134.972 234.24 129.819 228.037 124.725 221.254C129.738 221.486 134.862 221.66 140.043 221.659C145.28 221.659 150.461 221.543 155.532 221.253C150.487 228.036 145.278 234.24 140.127 239.806ZM98.835 205.66C90.9298 204.443 83.3044 202.936 76.0149 201.081C78.1103 193.603 80.7082 185.892 83.6403 178.181C85.9033 182.819 88.2776 187.457 90.8748 192.095C93.472 196.732 96.1254 201.254 98.835 205.66ZM140.556 85.0122C145.711 90.5776 150.864 96.7806 155.958 103.563C150.946 103.332 145.821 103.158 140.64 103.158C135.403 103.159 130.222 103.275 125.151 103.565C130.196 96.7817 135.405 90.5781 140.556 85.0122ZM99.1745 119.162C96.4243 123.626 93.6736 128.206 91.0894 132.902C88.5056 137.54 86.0889 142.178 83.7836 146.816C80.8107 139.048 78.2836 131.279 76.201 123.743C83.5072 121.945 91.2024 120.379 99.1745 119.162V119.162ZM48.4254 191.749C28.744 182.995 16.0389 171.517 16.0805 162.415C16.122 153.313 28.9323 141.775 48.6934 133.078C53.4942 130.933 58.7397 129.019 64.1518 127.222C67.2753 138.585 71.3996 150.411 76.5252 162.528C71.3448 174.587 67.1686 186.356 63.9972 197.661C58.4901 195.864 53.2624 193.894 48.4254 191.749ZM78.0189 274.594C70.463 270.072 67.2548 252.854 69.9186 230.707C70.5563 225.257 71.5853 219.518 72.8377 213.662C83.7441 216.444 95.6563 218.589 108.185 219.98C115.656 230.705 123.411 240.444 131.228 248.966C112.986 266.533 95.8947 276.158 84.307 276.159C81.8003 276.101 79.6857 275.579 78.0189 274.594V274.594ZM210.365 230.41C212.882 252.557 209.572 269.775 202.03 274.356C200.354 275.399 198.179 275.863 195.617 275.863C184.085 275.864 167.026 266.299 148.944 248.849C156.782 240.327 164.626 230.644 172.084 219.919C184.681 218.527 196.613 216.381 207.545 213.54C208.799 219.395 209.777 225.019 210.365 230.41V230.41ZM231.99 191.74C227.189 193.885 221.943 195.799 216.531 197.596C213.408 186.233 209.284 174.406 204.158 162.29C209.338 150.231 213.515 138.462 216.686 127.156C222.193 128.953 227.421 130.924 232.313 133.069C251.995 141.822 264.7 153.301 264.658 162.403C264.561 171.505 251.751 183.043 231.99 191.74V191.74Z" fill="#42D6FF"/>
</g>
<g filter="url(#filter3_i_15_5)">
<path d="M140.193 188.904C154.254 188.903 165.706 177.04 165.773 162.408C165.84 147.775 154.496 135.914 140.435 135.914C126.374 135.915 114.921 147.778 114.854 162.41C114.787 177.043 126.132 188.904 140.193 188.904Z" fill="#42D6FF"/>
</g>
</g>
</g>
</g>
<defs>
<filter id="filter0_d_15_5" x="0.464615" y="0.493393" width="280.794" height="331.108" filterUnits="userSpaceOnUse" color-interpolation-filters="sRGB">
<feFlood flood-opacity="0" result="BackgroundImageFix"/>
<feColorMatrix in="SourceAlpha" type="matrix" values="0 0 0 0 0 0 0 0 0 0 0 0 0 0 0 0 0 0 127 0" result="hardAlpha"/>
<feOffset dy="4"/>
<feGaussianBlur stdDeviation="1.5"/>
<feComposite in2="hardAlpha" operator="out"/>
<feColorMatrix type="matrix" values="0 0 0 0 0 0 0 0 0 0 0 0 0 0 0 0 0 0 0.25 0"/>
<feBlend mode="normal" in2="BackgroundImageFix" result="effect1_dropShadow_15_5"/>
<feBlend mode="normal" in="SourceGraphic" in2="effect1_dropShadow_15_5" result="shape"/>
</filter>
<filter id="filter1_d_15_5" x="1.7126" y="35.7307" width="277.314" height="259.298" filterUnits="userSpaceOnUse" color-interpolation-filters="sRGB">
<feFlood flood-opacity="0" result="BackgroundImageFix"/>
<feColorMatrix in="SourceAlpha" type="matrix" values="0 0 0 0 0 0 0 0 0 0 0 0 0 0 0 0 0 0 127 0" result="hardAlpha"/>
<feOffset dy="4"/>
<feGaussianBlur stdDeviation="1"/>
<feComposite in2="hardAlpha" operator="out"/>
<feColorMatrix type="matrix" values="0 0 0 0 0 0 0 0 0 0 0 0 0 0 0 0 0 0 0.25 0"/>
<feBlend mode="normal" in2="BackgroundImageFix" result="effect1_dropShadow_15_5"/>
<feBlend mode="normal" in="SourceGraphic" in2="effect1_dropShadow_15_5" result="shape"/>
</filter>
<filter id="filter2_i_15_5" x="3.7126" y="35.7307" width="273.314" height="257.298" filterUnits="userSpaceOnUse" color-interpolation-filters="sRGB">
<feFlood flood-opacity="0" result="BackgroundImageFix"/>
<feBlend mode="normal" in="SourceGraphic" in2="BackgroundImageFix" result="shape"/>
<feColorMatrix in="SourceAlpha" type="matrix" values="0 0 0 0 0 0 0 0 0 0 0 0 0 0 0 0 0 0 127 0" result="hardAlpha"/>
<feOffset dy="4"/>
<feGaussianBlur stdDeviation="2"/>
<feComposite in2="hardAlpha" operator="arithmetic" k2="-1" k3="1"/>
<feColorMatrix type="matrix" values="0 0 0 0 0 0 0 0 0 0 0 0 0 0 0 0 0 0 0.25 0"/>
<feBlend mode="normal" in2="shape" result="effect1_innerShadow_15_5"/>
</filter>
<filter id="filter3_i_15_5" x="114.854" y="135.914" width="50.9195" height="56.9892" filterUnits="userSpaceOnUse" color-interpolation-filters="sRGB">
<feFlood flood-opacity="0" result="BackgroundImageFix"/>
<feBlend mode="normal" in="SourceGraphic" in2="BackgroundImageFix" result="shape"/>
<feColorMatrix in="SourceAlpha" type="matrix" values="0 0 0 0 0 0 0 0 0 0 0 0 0 0 0 0 0 0 127 0" result="hardAlpha"/>
<feOffset dy="4"/>
<feGaussianBlur stdDeviation="2"/>
<feComposite in2="hardAlpha" operator="arithmetic" k2="-1" k3="1"/>
<feColorMatrix type="matrix" values="0 0 0 0 0 0 0 0 0 0 0 0 0 0 0 0 0 0 0.25 0"/>
<feBlend mode="normal" in2="shape" result="effect1_innerShadow_15_5"/>
</filter>
<clipPath id="clip0_15_5">
<rect width="273.313" height="324.098" transform="matrix(1 -4.87221e-05 -0.00456772 0.99999 4.94501 0.506714)" fill="white"/>
</clipPath>
</defs>
</svg>
