<svg width="789" height="409" viewBox="0 0 789 409" fill="none" xmlns="http://www.w3.org/2000/svg">
<g opacity="0.9" filter="url(#filter0_d_15_22)">
<g filter="url(#filter1_d_15_22)">
<path d="M391.257 354.224C389.241 354.237 387.354 353.806 385.599 353.042L367.641 344.409C364.941 343.208 366.282 342.756 367.088 342.53C370.71 341.51 371.381 341.283 375.131 339.487C375.533 339.262 376.073 339.37 376.477 339.589L390.251 346.256C390.79 346.473 391.463 346.469 391.864 346.245L445.31 320.311C445.845 320.086 446.112 319.64 446.107 319.087L445.683 268.028C445.679 267.474 445.405 267.033 444.866 266.815L390.996 241.69C390.457 241.471 389.784 241.476 389.383 241.701L335.937 267.524C335.401 267.749 335.135 268.305 335.139 268.747L335.563 319.806C335.566 320.25 335.841 320.801 336.38 321.02L351.097 327.902C359.059 331.173 364.002 327.264 363.97 323.388L363.552 272.993C363.546 272.329 364.213 271.659 365.155 271.653L372.013 271.608C372.82 271.603 373.631 272.152 373.638 272.927L374.056 323.322C374.129 332.071 368.388 337.204 358.302 337.27C355.209 337.29 352.789 337.306 345.907 334.581L331.732 328.028C328.221 326.39 326.044 323.302 326.017 319.98L325.593 268.921C325.565 265.598 327.691 262.482 331.174 260.799L384.619 234.864C387.968 233.292 392.541 233.262 395.916 234.791L449.785 260.026C453.295 261.664 455.474 264.752 455.501 268.075L455.925 319.134C455.953 322.456 453.826 325.572 450.343 327.256L396.898 353.19C395.155 353.867 393.141 354.211 391.258 354.224L391.257 354.224ZM407.507 319.006C383.974 319.159 379.059 310.33 378.996 302.799C378.991 302.134 379.658 301.465 380.599 301.459L387.592 301.414C388.399 301.408 389.075 301.847 389.08 302.512C390.205 308.375 393.322 311.234 407.577 311.141C418.873 311.068 423.698 308.932 423.657 303.948C423.633 301.068 422.269 298.973 404.641 297.647C389.972 296.524 380.806 293.926 380.726 284.29C380.651 275.319 389.753 269.942 405.083 269.842C422.296 269.73 430.809 274.549 431.974 285.174C431.976 285.507 431.844 285.84 431.578 286.174C431.31 286.397 430.909 286.621 430.506 286.624L423.512 286.669C422.84 286.674 422.164 286.235 422.025 285.682C420.361 279.602 416.175 277.635 405.148 277.706C392.776 277.787 391.325 281.341 391.347 283.999C391.374 287.211 393.131 288.196 409.821 289.86C426.377 291.525 434.199 294.021 434.278 303.546C434.224 313.294 424.587 318.895 407.507 319.006Z" fill="#539E43"/>
<path d="M223.114 155.613C223.097 153.619 221.737 151.744 219.577 150.761L162.333 124.108C161.387 123.671 160.31 123.456 159.234 123.352L158.695 123.356C157.62 123.363 156.546 123.702 155.609 124.152L98.813 151.548C96.6686 152.558 95.3403 154.45 95.3569 156.445L96.0947 229.1C96.103 230.097 96.7838 231.089 97.8626 231.526C98.9435 232.073 100.287 232.064 101.225 231.504L134.982 215.334C137.125 214.323 138.455 212.431 138.438 210.438L138.156 176.435C138.14 174.442 139.468 172.55 141.612 171.539L155.944 164.578C157.016 164.018 158.224 163.787 159.434 163.779C160.644 163.772 161.856 163.986 162.803 164.534L177.249 171.307C179.41 172.29 180.769 174.163 180.786 176.158L181.068 210.16C181.085 212.154 182.445 214.028 184.605 215.011L218.626 230.739C219.707 231.286 221.051 231.277 222.123 230.716C223.196 230.266 223.86 229.265 223.852 228.268L223.114 155.613ZM496.356 53.8134C495.277 53.3767 493.932 53.3855 492.993 53.8353C491.923 54.3962 491.257 55.2861 491.266 56.2828L491.863 128.276C491.868 128.94 491.471 129.607 490.668 130.056C489.864 130.393 489.056 130.398 488.247 130.072L473.936 123.408C472.887 122.925 471.703 122.675 470.5 122.683C469.298 122.691 468.118 122.956 467.077 123.453L410.282 150.96C408.139 151.971 406.81 153.862 406.826 155.856L407.276 210.016C407.292 212.009 408.653 213.884 410.813 214.867L468.058 241.631C469.107 242.114 470.291 242.364 471.493 242.357C472.696 242.349 473.876 242.083 474.917 241.586L531.711 214.08C533.855 213.069 535.184 211.177 535.168 209.183L534.047 74.1699C534.03 72.0655 532.669 70.1921 530.509 69.2085L496.357 53.8134L496.356 53.8134ZM492.255 191.63C492.259 192.184 491.994 192.628 491.457 192.853L472.035 202.284C471.764 202.395 471.465 202.454 471.162 202.456C470.859 202.457 470.56 202.403 470.287 202.295L450.71 193.119C450.17 192.901 449.896 192.349 449.893 191.906L449.738 173.298C449.734 172.744 449.999 172.3 450.536 172.075L469.958 162.644C470.229 162.533 470.528 162.474 470.831 162.472C471.134 162.47 471.433 162.525 471.706 162.632L491.283 171.81C491.823 172.027 492.097 172.58 492.1 173.022L492.255 191.63ZM687.093 171.31C689.237 170.299 690.432 168.408 690.415 166.414L690.306 153.234C690.29 151.241 688.929 149.367 686.903 148.383L630.063 121.727C629.014 121.244 627.83 120.994 626.627 121.002C625.425 121.01 624.245 121.275 623.205 121.772L566.41 149.278C564.266 150.289 562.937 152.181 562.954 154.175L563.403 208.335C563.42 210.328 564.779 212.202 566.94 213.185L623.777 239.398C625.938 240.381 628.492 240.364 630.501 239.354L664.662 223.405C665.735 222.954 666.399 221.953 666.391 220.957C666.383 219.96 665.702 218.968 664.622 218.531L607.108 191.769C606.028 191.223 605.348 190.341 605.34 189.344L605.2 172.398C605.191 171.401 605.856 170.4 606.927 169.95L624.744 161.415C625.265 161.141 625.87 160.993 626.488 160.989C627.107 160.985 627.714 161.125 628.24 161.393L646.195 169.694C647.276 170.241 647.956 171.122 647.964 172.12L648.075 185.41C648.083 186.407 648.764 187.399 649.843 187.835C650.924 188.382 652.267 188.373 653.339 187.812L687.093 171.31V171.31Z" fill="#333333"/>
<path d="M626.153 169.159C626.352 169.05 626.585 168.991 626.824 168.989C627.062 168.988 627.297 169.044 627.497 169.151L638.434 174.285C638.839 174.503 639.111 174.834 639.114 175.278L639.201 185.689C639.204 186.131 638.938 186.466 638.536 186.69L627.686 191.966C627.488 192.076 627.255 192.135 627.016 192.136C626.777 192.138 626.543 192.082 626.342 191.975L615.406 186.84C615 186.622 614.729 186.291 614.725 185.848L614.639 175.437C614.635 174.993 614.901 174.659 615.303 174.436L626.153 169.159V169.159Z" fill="#539E43"/>
<mask id="mask0_15_22" style="mask-type:alpha" maskUnits="userSpaceOnUse" x="251" y="123" width="128" height="120">
<path d="M318.203 123.98C317.154 123.497 315.97 123.247 314.768 123.255C313.566 123.262 312.386 123.528 311.345 124.024L254.952 151.305C252.808 152.316 251.614 154.207 251.63 156.2L252.078 210.14C252.094 212.133 253.455 214.007 255.481 214.991L312.32 241.537C313.369 242.02 314.553 242.27 315.755 242.262C316.958 242.254 318.137 241.989 319.178 241.492L375.572 214.209C377.715 213.198 378.911 211.307 378.894 209.314L378.447 155.375C378.43 153.382 377.068 151.508 375.044 150.524L318.203 123.98Z" fill="white"/>
</mask>
<g mask="url(#mask0_15_22)">
<path d="M318.203 123.98C317.154 123.497 315.97 123.247 314.768 123.255C313.566 123.262 312.386 123.528 311.345 124.024L254.952 151.305C252.808 152.316 251.614 154.207 251.63 156.2L252.078 210.14C252.094 212.133 253.455 214.007 255.481 214.991L312.32 241.537C313.369 242.02 314.553 242.27 315.755 242.262C316.958 242.254 318.137 241.989 319.178 241.492L375.572 214.209C377.715 213.198 378.911 211.307 378.894 209.314L378.447 155.375C378.43 153.382 377.068 151.508 375.044 150.524L318.203 123.98Z" fill="url(#paint0_linear_15_22)"/>
<path d="M375.178 150.523L318.069 123.981C317.509 123.752 316.921 123.57 316.316 123.438L253.318 213.789C253.851 214.316 254.492 214.762 255.213 215.106L312.321 241.65C313.941 242.414 315.826 242.623 317.57 242.168L376.667 151.623C376.259 151.182 375.718 150.852 375.178 150.524L375.178 150.523Z" fill="url(#paint1_linear_15_22)"/>
<path fill-rule="evenodd" clip-rule="evenodd" d="M375.841 214.208C377.448 213.422 378.647 212.085 379.174 210.642L316.045 123.329C314.429 123.118 312.681 123.239 311.21 124.024L254.95 151.196L316.628 242.285C317.513 242.16 318.372 241.93 319.178 241.604L375.84 214.209L375.841 214.208Z" fill="url(#paint2_linear_15_22)"/>
<path fill-rule="evenodd" clip-rule="evenodd" d="M375.841 214.208L319.313 241.492C318.515 241.834 317.653 242.064 316.764 242.173L317.854 243.827L380.541 213.403L380.536 212.738L378.903 210.533C378.647 212.085 377.448 213.422 375.841 214.208V214.208Z" fill="url(#paint3_linear_15_22)"/>
<path fill-rule="evenodd" clip-rule="evenodd" d="M375.841 214.208L319.313 241.492C318.515 241.834 317.653 242.064 316.764 242.173L317.854 243.827L380.541 213.403L380.536 212.738L378.903 210.533C378.647 212.085 377.448 213.422 375.841 214.208V214.208Z" fill="url(#paint4_linear_15_22)"/>
</g>
</g>
</g>
<defs>
<filter id="filter0_d_15_22" x="-4" y="-3.05176e-05" width="796.995" height="416.905" filterUnits="userSpaceOnUse" color-interpolation-filters="sRGB">
<feFlood flood-opacity="0" result="BackgroundImageFix"/>
<feColorMatrix in="SourceAlpha" type="matrix" values="0 0 0 0 0 0 0 0 0 0 0 0 0 0 0 0 0 0 127 0" result="hardAlpha"/>
<feOffset dy="4"/>
<feGaussianBlur stdDeviation="2"/>
<feComposite in2="hardAlpha" operator="out"/>
<feColorMatrix type="matrix" values="0 0 0 0 0 0 0 0 0 0 0 0 0 0 0 0 0 0 0.25 0"/>
<feBlend mode="normal" in2="BackgroundImageFix" result="effect1_dropShadow_15_22"/>
<feBlend mode="normal" in="SourceGraphic" in2="effect1_dropShadow_15_22" result="shape"/>
</filter>
<filter id="filter1_d_15_22" x="92.3567" y="52.4918" width="601.059" height="306.732" filterUnits="userSpaceOnUse" color-interpolation-filters="sRGB">
<feFlood flood-opacity="0" result="BackgroundImageFix"/>
<feColorMatrix in="SourceAlpha" type="matrix" values="0 0 0 0 0 0 0 0 0 0 0 0 0 0 0 0 0 0 127 0" result="hardAlpha"/>
<feOffset dy="2"/>
<feGaussianBlur stdDeviation="1.5"/>
<feComposite in2="hardAlpha" operator="out"/>
<feColorMatrix type="matrix" values="0 0 0 0 0.196078 0 0 0 0 0.2 0 0 0 0 0.188235 0 0 0 0.8 0"/>
<feBlend mode="normal" in2="BackgroundImageFix" result="effect1_dropShadow_15_22"/>
<feBlend mode="normal" in="SourceGraphic" in2="effect1_dropShadow_15_22" result="shape"/>
</filter>
<linearGradient id="paint0_linear_15_22" x1="338.007" y1="143.915" x2="292.254" y2="232.687" gradientUnits="userSpaceOnUse">
<stop stop-color="#41873F"/>
<stop offset="0.3288" stop-color="#418B3D"/>
<stop offset="0.6352" stop-color="#419637"/>
<stop offset="0.9319" stop-color="#3FA92D"/>
<stop offset="1" stop-color="#3FAE2A"/>
</linearGradient>
<linearGradient id="paint1_linear_15_22" x1="306.718" y1="189.132" x2="446.144" y2="95.5981" gradientUnits="userSpaceOnUse">
<stop offset="0.1376" stop-color="#41873F"/>
<stop offset="0.4032" stop-color="#54A044"/>
<stop offset="0.7136" stop-color="#66B848"/>
<stop offset="0.9081" stop-color="#6CC04A"/>
</linearGradient>
<linearGradient id="paint2_linear_15_22" x1="249.785" y1="183.186" x2="380.792" y2="182.099" gradientUnits="userSpaceOnUse">
<stop offset="0.09192" stop-color="#6CC04A"/>
<stop offset="0.2864" stop-color="#66B848"/>
<stop offset="0.5968" stop-color="#54A044"/>
<stop offset="0.8624" stop-color="#41873F"/>
</linearGradient>
<linearGradient id="paint3_linear_15_22" x1="250.157" y1="227.91" x2="381.163" y2="226.823" gradientUnits="userSpaceOnUse">
<stop offset="0.09192" stop-color="#6CC04A"/>
<stop offset="0.2864" stop-color="#66B848"/>
<stop offset="0.5968" stop-color="#54A044"/>
<stop offset="0.8624" stop-color="#41873F"/>
</linearGradient>
<linearGradient id="paint4_linear_15_22" x1="399.537" y1="140.964" x2="377.723" y2="285.945" gradientUnits="userSpaceOnUse">
<stop stop-color="#41873F"/>
<stop offset="0.3288" stop-color="#418B3D"/>
<stop offset="0.6352" stop-color="#419637"/>
<stop offset="0.9319" stop-color="#3FA92D"/>
<stop offset="1" stop-color="#3FAE2A"/>
</linearGradient>
</defs>
</svg>
