<svg width="550" height="370" viewBox="0 0 550 370" fill="none" xmlns="http://www.w3.org/2000/svg">
<g filter="url(#filter0_d_15_21)">
<path d="M471.301 206.722C452.281 206.817 435.811 210.85 421.997 216.855C416.897 207.943 411.796 200.155 410.947 194.34C409.991 187.586 408.822 183.457 409.991 175.39C411.159 167.321 416.471 155.876 416.471 154.938C416.364 154.094 415.302 149.966 404.358 149.872C393.414 149.779 383.956 151.749 382.894 154.282C381.831 156.814 379.706 162.631 378.324 168.635C376.412 177.453 356.435 208.692 345.065 225.109C341.346 218.73 338.158 213.101 337.52 208.597C336.565 201.844 335.395 197.715 336.564 189.648C337.733 181.58 343.046 170.136 343.046 169.198C342.94 168.353 341.877 164.226 330.934 164.132C319.988 164.038 310.532 166.008 309.469 168.541C308.407 171.074 307.238 177.078 304.9 182.894C302.668 188.71 276.103 240.869 269.196 254.472C265.69 261.414 262.609 266.949 260.377 270.701C258.145 274.454 260.27 270.983 260.058 271.358C258.145 274.548 257.083 276.33 257.083 276.33V276.425C255.595 278.77 254.001 281.021 253.256 281.021C252.725 281.021 251.662 274.735 253.469 266.106C257.4 247.999 266.964 219.763 266.858 218.731C266.858 218.262 268.664 213.289 260.694 210.757C252.937 208.224 250.176 212.446 249.537 212.446C248.9 212.446 248.368 213.947 248.368 213.947C248.368 213.947 256.975 182.145 231.898 182.145C216.172 182.145 194.495 197.249 183.763 211.039C176.962 214.323 162.511 221.264 147.209 228.676C141.365 231.49 135.308 234.492 129.57 237.213L128.403 236.085C98.0124 207.473 41.8013 187.209 44.139 148.747C44.9891 134.769 50.5145 97.901 152.099 53.2468C235.3 16.6603 301.925 26.6981 313.506 49.0252C329.976 80.9211 277.909 140.21 191.415 148.747C158.475 152.03 141.154 140.773 136.798 136.551C132.229 132.142 131.591 131.954 129.891 132.799C127.129 134.112 128.829 138.052 129.891 140.397C132.442 146.308 143.067 156.814 161.132 162.068C176.963 166.665 215.643 169.198 262.397 153.25C314.782 135.332 355.692 85.6117 343.685 44.0532C331.465 1.74432 251.983 -12.1398 176.858 11.4069C132.122 25.4786 83.6674 47.4304 48.8144 76.2305C7.37327 110.378 0.7852 140.21 3.54794 152.593C13.2186 196.778 82.1798 225.578 109.807 246.873C108.426 247.529 107.151 248.186 105.982 248.75C92.1682 254.753 39.5698 279.051 26.3937 304.754C11.5174 333.836 28.7314 354.756 40.2074 357.571C75.698 366.295 112.039 350.629 131.697 324.831C151.247 299.033 148.911 265.542 139.879 250.251L139.559 249.688L150.397 244.059C157.411 240.4 164.318 237.023 170.374 234.114C166.975 242.276 164.53 251.938 163.256 266.01C161.768 282.522 169.419 303.91 179.513 312.353C183.976 316.01 189.289 316.105 192.583 316.105C204.272 316.105 209.585 307.567 215.429 297.343C222.655 284.866 229.03 270.419 229.03 270.419C229.03 270.419 221.061 309.538 242.844 309.538C250.813 309.538 258.783 300.439 262.396 295.748V295.842C262.396 295.842 262.608 295.561 263.033 294.904C263.479 294.322 263.904 293.728 264.308 293.122V292.935C267.496 288.057 274.615 276.893 285.241 258.412C298.948 234.584 312.125 204.752 312.125 204.752C312.125 204.752 313.4 212.069 317.332 224.077C319.668 231.208 324.769 238.993 328.7 246.592C325.512 250.532 323.6 252.784 323.6 252.784L323.706 252.878C321.157 255.88 318.287 259.071 315.313 262.259C304.474 273.704 291.511 286.745 289.81 290.498C287.791 294.906 288.217 298.189 292.148 300.817C295.017 302.693 300.118 303.067 305.537 302.693C315.313 302.129 322.113 299.973 325.514 298.658C330.827 296.97 336.883 294.437 342.728 290.684C353.353 283.743 359.835 273.893 359.198 260.759C358.879 253.536 356.222 246.406 352.928 239.652C353.885 238.432 354.842 237.212 355.797 235.899C372.586 214.228 385.55 190.401 385.55 190.401C385.55 190.401 386.825 197.718 390.757 209.726C392.775 215.824 396.814 222.485 400.426 229.052C384.7 240.403 374.818 253.537 371.418 262.167C365.148 278.115 370.036 285.339 379.281 287.027C383.424 287.778 389.375 286.089 393.837 284.401C399.363 282.806 406.057 280.084 412.221 276.052C422.847 269.109 433.048 259.447 432.517 246.407C432.198 240.403 430.391 234.493 427.947 228.864C441.336 223.986 458.655 221.172 480.652 223.517C527.937 228.395 537.288 254.475 535.483 265.357C533.677 276.24 523.794 282.243 520.499 284.119C517.205 285.902 516.143 286.559 516.461 287.872C516.886 289.843 518.374 289.748 521.243 289.374C525.175 288.81 546.108 280.462 546.958 260.387C548.233 234.585 520.499 206.442 471.301 206.722ZM106.619 315.262C90.9993 330.365 69.0037 336.088 59.6528 331.21C49.5582 326.05 53.4887 303.817 72.7227 287.775C84.4112 278.019 99.6063 269.013 109.595 263.478C111.826 262.258 115.226 260.477 119.264 258.318C119.902 257.944 120.327 257.755 120.327 257.755C121.071 257.38 121.921 256.911 122.771 256.442C129.89 279.332 123.09 299.408 106.619 315.262ZM220.848 246.686C215.429 258.412 203.953 288.526 197.046 286.837C191.094 285.43 187.483 262.634 195.876 240.119C200.127 228.767 209.159 215.259 214.472 210.005C223.08 201.562 232.429 198.747 234.768 202.218C237.531 206.722 224.248 239.368 220.848 246.686ZM315.1 286.462C312.762 287.495 310.637 288.244 309.681 287.682C308.937 287.307 310.636 285.9 310.636 285.9C310.636 285.9 322.431 274.736 327.106 269.577C329.763 266.576 332.951 263.105 336.351 259.164V260.289C336.352 273.797 321.688 282.803 315.1 286.462ZM387.78 271.827C386.08 270.701 386.294 267.23 392.031 256.348C394.263 252.033 399.363 244.81 408.182 237.961C409.245 240.776 409.883 243.495 409.776 246.029C409.671 262.915 396.07 269.2 387.78 271.827Z" fill="#CF649A"/>
</g>
<defs>
<filter id="filter0_d_15_21" x="0" y="0" width="550" height="370" filterUnits="userSpaceOnUse" color-interpolation-filters="sRGB">
<feFlood flood-opacity="0" result="BackgroundImageFix"/>
<feColorMatrix in="SourceAlpha" type="matrix" values="0 0 0 0 0 0 0 0 0 0 0 0 0 0 0 0 0 0 127 0" result="hardAlpha"/>
<feOffset dy="7"/>
<feGaussianBlur stdDeviation="1.5"/>
<feComposite in2="hardAlpha" operator="out"/>
<feColorMatrix type="matrix" values="0 0 0 0 0.196078 0 0 0 0 0.2 0 0 0 0 0.188235 0 0 0 0.8 0"/>
<feBlend mode="normal" in2="BackgroundImageFix" result="effect1_dropShadow_15_21"/>
<feBlend mode="normal" in="SourceGraphic" in2="effect1_dropShadow_15_21" result="shape"/>
</filter>
</defs>
</svg>
