<svg width="1292" height="340" viewBox="0 0 1292 340" fill="none" xmlns="http://www.w3.org/2000/svg">
<g filter="url(#filter0_d_3_141)">
<rect width="1288" height="324.776" rx="13" fill="url(#paint0_linear_3_141)" fill-opacity="0.9" style="mix-blend-mode:darken" shape-rendering="crispEdges"/>
</g>
<g opacity="0.5" filter="url(#filter1_i_3_141)">
<g filter="url(#filter2_d_3_141)">
<path d="M475.079 190.301C474.138 190.307 473.257 190.087 472.437 189.698L464.052 185.299C462.791 184.687 463.417 184.457 463.793 184.342C465.483 183.824 465.796 183.709 467.546 182.796C467.734 182.682 467.986 182.737 468.175 182.848L474.606 186.245C474.858 186.356 475.172 186.354 475.359 186.24L500.298 173.055C500.548 172.941 500.672 172.714 500.67 172.433L500.454 146.445C500.452 146.163 500.324 145.939 500.072 145.827L474.918 133.025C474.666 132.913 474.352 132.915 474.165 133.03L449.225 146.158C448.975 146.272 448.852 146.555 448.854 146.781L449.069 172.768C449.071 172.994 449.199 173.275 449.451 173.386L456.323 176.893C460.041 178.56 462.347 176.572 462.331 174.599L462.118 148.949C462.115 148.611 462.426 148.271 462.866 148.268L466.067 148.247C466.444 148.244 466.823 148.524 466.826 148.919L467.039 174.568C467.076 179.021 464.398 181.632 459.69 181.663C458.246 181.672 457.116 181.68 453.903 180.291L447.284 176.952C445.645 176.117 444.627 174.545 444.613 172.854L444.398 146.866C444.383 145.175 445.375 143.59 447 142.734L471.938 129.549C473.501 128.749 475.636 128.735 477.212 129.514L502.366 142.373C504.005 143.208 505.023 144.78 505.037 146.471L505.253 172.459C505.267 174.15 504.275 175.735 502.65 176.591L477.712 189.776C476.898 190.12 475.958 190.295 475.079 190.301L475.079 190.301ZM482.652 172.381C471.667 172.452 469.369 167.957 469.338 164.124C469.335 163.785 469.646 163.445 470.085 163.442L473.35 163.421C473.726 163.419 474.042 163.642 474.045 163.981C474.572 166.965 476.028 168.421 482.682 168.378C487.955 168.343 490.206 167.258 490.185 164.721C490.173 163.255 489.536 162.189 481.306 161.509C474.459 160.933 470.179 159.608 470.138 154.704C470.1 150.138 474.347 147.404 481.503 147.357C489.538 147.305 493.513 149.76 494.061 155.168C494.062 155.337 494.001 155.507 493.877 155.677C493.751 155.79 493.564 155.904 493.376 155.905L490.112 155.927C489.798 155.929 489.482 155.705 489.417 155.424C488.638 152.329 486.684 151.326 481.536 151.36C475.761 151.397 475.085 153.206 475.096 154.559C475.11 156.193 475.93 156.695 483.722 157.547C491.45 158.399 495.102 159.671 495.143 164.519C495.121 169.481 490.625 172.329 482.652 172.381Z" fill="#539E43"/>
<path d="M396.522 89.1677C396.513 88.1532 395.877 87.1983 394.869 86.6976L368.139 73.1163C367.697 72.8933 367.194 72.7839 366.692 72.7306L366.44 72.7323C365.938 72.7355 365.437 72.908 365 73.1367L338.498 87.0647C337.497 87.5785 336.878 88.5411 336.886 89.5561L337.256 126.536C337.26 127.043 337.578 127.548 338.082 127.771C338.587 128.049 339.214 128.045 339.652 127.761L355.403 119.54C356.403 119.026 357.023 118.063 357.015 117.049L356.871 99.7425C356.863 98.7279 357.482 97.7654 358.483 97.2516L365.17 93.7126C365.671 93.4274 366.234 93.3106 366.799 93.3069C367.364 93.3032 367.93 93.4127 368.372 93.6918L375.118 97.1433C376.127 97.644 376.762 98.5979 376.771 99.6129L376.914 116.919C376.923 117.934 377.558 118.888 378.567 119.389L394.453 127.404C394.958 127.682 395.585 127.678 396.085 127.393C396.586 127.164 396.896 126.655 396.891 126.147L396.522 89.1677ZM524.033 37.4302C523.529 37.2076 522.901 37.2117 522.463 37.4404C521.964 37.7256 521.653 38.1783 521.658 38.6856L521.962 75.3281C521.964 75.6661 521.779 76.0053 521.404 76.2336C521.029 76.4048 520.652 76.4073 520.274 76.241L513.592 72.8456C513.102 72.5994 512.549 72.4718 511.988 72.4755C511.426 72.4791 510.876 72.6139 510.39 72.8665L483.888 86.851C482.888 87.3649 482.269 88.3274 482.277 89.3419L482.506 116.908C482.514 117.922 483.15 118.877 484.158 119.378L510.889 133.016C511.379 133.262 511.932 133.39 512.493 133.386C513.055 133.382 513.605 133.248 514.091 132.995L540.593 119.01C541.593 118.497 542.213 117.534 542.204 116.519L541.634 47.8014C541.625 46.7302 540.989 45.7764 539.981 45.2752L524.033 37.4302L524.033 37.4302ZM522.167 107.573C522.169 107.855 522.045 108.081 521.795 108.196L512.732 112.99C512.606 113.047 512.466 113.077 512.325 113.077C512.183 113.078 512.043 113.05 511.916 112.995L502.775 108.32C502.522 108.209 502.394 107.928 502.393 107.702L502.314 98.2315C502.312 97.9495 502.435 97.7234 502.686 97.6091L511.748 92.8142C511.875 92.7577 512.014 92.7278 512.156 92.7269C512.297 92.726 512.437 92.754 512.565 92.8089L521.706 97.4852C521.958 97.5957 522.086 97.8773 522.088 98.1027L522.167 107.573ZM613.108 97.2846C614.109 96.7708 614.666 95.8087 614.657 94.7936L614.602 88.0856C614.593 87.071 613.958 86.1167 613.012 85.6156L586.47 72.033C585.98 71.7868 585.427 71.6593 584.866 71.663C584.305 71.6666 583.754 71.8013 583.268 72.0539L556.767 86.0379C555.766 86.5517 555.147 87.5143 555.155 88.5293L555.384 116.095C555.392 117.11 556.028 118.064 557.037 118.565L583.577 131.922C584.586 132.423 585.778 132.415 586.715 131.902L602.656 123.793C603.157 123.564 603.466 123.055 603.462 122.548C603.458 122.04 603.14 121.535 602.635 121.313L575.779 107.675C575.275 107.397 574.957 106.948 574.953 106.441L574.882 97.8159C574.877 97.3087 575.187 96.7994 575.687 96.5703L584.001 92.2315C584.244 92.0918 584.526 92.0166 584.815 92.0148C585.104 92.0129 585.387 92.0843 585.633 92.2209L594.017 96.4509C594.522 96.7296 594.839 97.1782 594.844 97.686L594.9 104.451C594.904 104.958 595.222 105.463 595.726 105.685C596.231 105.964 596.858 105.96 597.358 105.675L613.108 97.2846V97.2846Z" fill="#333333"/>
<path d="M584.661 96.1733C584.754 96.1177 584.863 96.0876 584.974 96.0869C585.086 96.0862 585.195 96.1148 585.289 96.1693L590.396 98.7856C590.585 98.8966 590.712 99.065 590.714 99.2908L590.758 104.59C590.76 104.815 590.635 104.985 590.448 105.099L585.385 107.782C585.292 107.837 585.184 107.867 585.072 107.868C584.961 107.869 584.851 107.84 584.758 107.786L579.651 105.169C579.461 105.058 579.335 104.89 579.333 104.664L579.289 99.3652C579.287 99.1394 579.411 98.9693 579.598 98.8559L584.661 96.1733V96.1733Z" fill="#539E43"/>
<mask id="mask0_3_141" style="mask-type:alpha" maskUnits="userSpaceOnUse" x="409" y="72" width="61" height="62">
<path d="M440.897 73.0937C440.408 72.8475 439.855 72.72 439.294 72.7236C438.732 72.7273 438.182 72.862 437.696 73.1145L411.382 86.9842C410.381 87.498 409.824 88.4601 409.833 89.4747L410.061 116.928C410.069 117.943 410.705 118.897 411.651 119.398L438.192 132.925C438.682 133.171 439.235 133.299 439.796 133.295C440.357 133.291 440.908 133.157 441.394 132.904L467.708 119.033C468.708 118.52 469.266 117.557 469.257 116.543L469.03 89.0897C469.021 88.0751 468.385 87.1208 467.439 86.6197L440.897 73.0937Z" fill="white"/>
</mask>
<g mask="url(#mask0_3_141)">
<path d="M440.897 73.0937C440.408 72.8475 439.855 72.72 439.294 72.7236C438.732 72.7273 438.182 72.862 437.696 73.1145L411.382 86.9842C410.381 87.498 409.824 88.4601 409.833 89.4747L410.061 116.928C410.069 117.943 410.705 118.897 411.651 119.398L438.192 132.925C438.682 133.171 439.235 133.299 439.796 133.295C440.357 133.291 440.908 133.157 441.394 132.904L467.708 119.033C468.708 118.52 469.266 117.557 469.257 116.543L469.03 89.0897C469.021 88.0751 468.385 87.1208 467.439 86.6197L440.897 73.0937Z" fill="url(#paint1_linear_3_141)"/>
<path d="M467.502 86.6193L440.835 73.0941C440.573 72.9775 440.299 72.8848 440.016 72.8175L410.641 118.786C410.89 119.055 411.189 119.282 411.526 119.457L438.193 132.982C438.949 133.372 439.829 133.479 440.643 133.248L468.197 87.1791C468.007 86.955 467.754 86.7869 467.502 86.6197L467.502 86.6193Z" fill="url(#paint2_linear_3_141)"/>
<path fill-rule="evenodd" clip-rule="evenodd" d="M467.834 119.033C468.584 118.634 469.143 117.953 469.388 117.219L439.89 72.7618C439.135 72.654 438.32 72.7154 437.633 73.1145L411.381 86.9286L440.204 133.307C440.617 133.243 441.017 133.127 441.394 132.961L467.833 119.034L467.834 119.033Z" fill="url(#paint3_linear_3_141)"/>
<path fill-rule="evenodd" clip-rule="evenodd" d="M467.834 119.033L441.457 132.904C441.084 133.078 440.682 133.195 440.267 133.25L440.776 134.092L470.027 118.625L470.025 118.286L469.262 117.163C469.143 117.953 468.584 118.634 467.834 119.033V119.033Z" fill="url(#paint4_linear_3_141)"/>
<path fill-rule="evenodd" clip-rule="evenodd" d="M467.834 119.033L441.457 132.904C441.084 133.078 440.682 133.195 440.267 133.25L440.776 134.092L470.027 118.625L470.025 118.286L469.262 117.163C469.143 117.953 468.584 118.634 467.834 119.033V119.033Z" fill="url(#paint5_linear_3_141)"/>
</g>
</g>
</g>
<g filter="url(#filter3_d_3_141)">
<path d="M590.062 184.751C587.187 184.751 584.611 184.284 582.334 183.351C580.056 182.417 578.227 181.036 576.846 179.207C575.502 177.377 574.792 175.175 574.718 172.599H584.91C585.059 174.055 585.563 175.175 586.422 175.959C587.28 176.705 588.4 177.079 589.782 177.079C591.2 177.079 592.32 176.761 593.142 176.127C593.963 175.455 594.374 174.54 594.374 173.383C594.374 172.412 594.038 171.609 593.366 170.975C592.731 170.34 591.928 169.817 590.958 169.407C590.024 168.996 588.68 168.529 586.926 168.007C584.387 167.223 582.315 166.439 580.71 165.655C579.104 164.871 577.723 163.713 576.566 162.183C575.408 160.652 574.83 158.655 574.83 156.191C574.83 152.532 576.155 149.676 578.806 147.623C581.456 145.532 584.91 144.487 589.166 144.487C593.496 144.487 596.987 145.532 599.638 147.623C602.288 149.676 603.707 152.551 603.894 156.247H593.534C593.459 154.977 592.992 153.988 592.134 153.279C591.275 152.532 590.174 152.159 588.83 152.159C587.672 152.159 586.739 152.476 586.03 153.111C585.32 153.708 584.966 154.585 584.966 155.743C584.966 157.012 585.563 158.001 586.758 158.711C587.952 159.42 589.819 160.185 592.358 161.007C594.896 161.865 596.95 162.687 598.518 163.471C600.123 164.255 601.504 165.393 602.662 166.887C603.819 168.38 604.398 170.303 604.398 172.655C604.398 174.895 603.819 176.929 602.662 178.759C601.542 180.588 599.899 182.044 597.734 183.127C595.568 184.209 593.011 184.751 590.062 184.751ZM634.763 177.415H620.091L617.739 184.359H607.715L621.939 145.047H633.027L647.251 184.359H637.115L634.763 177.415ZM632.299 170.023L627.427 155.631L622.611 170.023H632.299ZM666.308 145.047C670.452 145.047 674.073 145.868 677.172 147.511C680.27 149.153 682.66 151.468 684.34 154.455C686.057 157.404 686.916 160.82 686.916 164.703C686.916 168.548 686.057 171.964 684.34 174.951C682.66 177.937 680.252 180.252 677.116 181.895C674.017 183.537 670.414 184.359 666.308 184.359H651.58V145.047H666.308ZM665.692 176.071C669.313 176.071 672.132 175.081 674.148 173.103C676.164 171.124 677.172 168.324 677.172 164.703C677.172 161.081 676.164 158.263 674.148 156.247C672.132 154.231 669.313 153.223 665.692 153.223H661.156V176.071H665.692ZM701.843 145.047V184.359H692.267V145.047H701.843ZM736.783 191.079L731.743 184.303C730.25 184.601 728.794 184.751 727.375 184.751C723.679 184.751 720.282 183.892 717.183 182.175C714.122 180.457 711.676 178.068 709.847 175.007C708.055 171.908 707.159 168.436 707.159 164.591C707.159 160.745 708.055 157.292 709.847 154.231C711.676 151.169 714.122 148.78 717.183 147.063C720.282 145.345 723.679 144.487 727.375 144.487C731.071 144.487 734.45 145.345 737.511 147.063C740.61 148.78 743.036 151.169 744.791 154.231C746.583 157.292 747.479 160.745 747.479 164.591C747.479 167.951 746.788 171.031 745.407 173.831C744.063 176.593 742.178 178.889 739.751 180.719L748.375 191.079H736.783ZM716.959 164.591C716.959 168.063 717.892 170.844 719.759 172.935C721.663 174.988 724.202 176.015 727.375 176.015C730.511 176.015 733.012 174.969 734.879 172.879C736.783 170.788 737.735 168.025 737.735 164.591C737.735 161.119 736.783 158.356 734.879 156.303C733.012 154.212 730.511 153.167 727.375 153.167C724.202 153.167 721.663 154.193 719.759 156.247C717.892 158.3 716.959 161.081 716.959 164.591ZM786.964 145.047V184.359H777.388V168.175H762.492V184.359H752.916V145.047H762.492V160.447H777.388V145.047H786.964ZM818.349 177.415H803.677L801.325 184.359H791.301L805.525 145.047H816.613L830.837 184.359H820.701L818.349 177.415ZM815.885 170.023L811.013 155.631L806.197 170.023H815.885ZM849.39 184.751C846.515 184.751 843.939 184.284 841.662 183.351C839.384 182.417 837.555 181.036 836.174 179.207C834.83 177.377 834.12 175.175 834.046 172.599H844.238C844.387 174.055 844.891 175.175 845.75 175.959C846.608 176.705 847.728 177.079 849.11 177.079C850.528 177.079 851.648 176.761 852.47 176.127C853.291 175.455 853.702 174.54 853.702 173.383C853.702 172.412 853.366 171.609 852.694 170.975C852.059 170.34 851.256 169.817 850.286 169.407C849.352 168.996 848.008 168.529 846.254 168.007C843.715 167.223 841.643 166.439 840.038 165.655C838.432 164.871 837.051 163.713 835.894 162.183C834.736 160.652 834.158 158.655 834.158 156.191C834.158 152.532 835.483 149.676 838.134 147.623C840.784 145.532 844.238 144.487 848.494 144.487C852.824 144.487 856.315 145.532 858.966 147.623C861.616 149.676 863.035 152.551 863.222 156.247H852.862C852.787 154.977 852.32 153.988 851.462 153.279C850.603 152.532 849.502 152.159 848.158 152.159C847 152.159 846.067 152.476 845.358 153.111C844.648 153.708 844.294 154.585 844.294 155.743C844.294 157.012 844.891 158.001 846.086 158.711C847.28 159.42 849.147 160.185 851.686 161.007C854.224 161.865 856.278 162.687 857.846 163.471C859.451 164.255 860.832 165.393 861.99 166.887C863.147 168.38 863.726 170.303 863.726 172.655C863.726 174.895 863.147 176.929 861.99 178.759C860.87 180.588 859.227 182.044 857.062 183.127C854.896 184.209 852.339 184.751 849.39 184.751ZM894.091 177.415H879.419L877.067 184.359H867.043L881.267 145.047H892.355L906.579 184.359H896.443L894.091 177.415ZM891.627 170.023L886.755 155.631L881.939 170.023H891.627ZM946.076 184.359H936.5L920.484 160.111V184.359H910.908V145.047H920.484L936.5 169.407V145.047H946.076V184.359ZM984.932 184.359L976.756 169.519H974.46V184.359H964.884V145.047H980.956C984.055 145.047 986.687 145.588 988.852 146.671C991.055 147.753 992.698 149.247 993.78 151.151C994.863 153.017 995.404 155.108 995.404 157.423C995.404 160.036 994.658 162.369 993.164 164.423C991.708 166.476 989.543 167.932 986.668 168.791L995.74 184.359H984.932ZM974.46 162.743H980.396C982.151 162.743 983.458 162.313 984.316 161.455C985.212 160.596 985.66 159.383 985.66 157.815C985.66 156.321 985.212 155.145 984.316 154.287C983.458 153.428 982.151 152.999 980.396 152.999H974.46V162.743ZM1010.82 145.047V168.567C1010.82 170.919 1011.4 172.729 1012.56 173.999C1013.72 175.268 1015.42 175.903 1017.66 175.903C1019.9 175.903 1021.61 175.268 1022.81 173.999C1024 172.729 1024.6 170.919 1024.6 168.567V145.047H1034.18V168.511C1034.18 172.02 1033.43 174.988 1031.94 177.415C1030.44 179.841 1028.43 181.671 1025.89 182.903C1023.39 184.135 1020.59 184.751 1017.49 184.751C1014.39 184.751 1011.61 184.153 1009.14 182.959C1006.72 181.727 1004.79 179.897 1003.38 177.471C1001.96 175.007 1001.25 172.02 1001.25 168.511V145.047H1010.82ZM1070.86 157.703C1070.86 159.98 1070.34 162.071 1069.29 163.975C1068.25 165.841 1066.64 167.353 1064.48 168.511C1062.31 169.668 1059.62 170.247 1056.41 170.247H1050.48V184.359H1040.9V145.047H1056.41C1059.55 145.047 1062.2 145.588 1064.36 146.671C1066.53 147.753 1068.15 149.247 1069.24 151.151C1070.32 153.055 1070.86 155.239 1070.86 157.703ZM1055.68 162.631C1057.51 162.631 1058.88 162.201 1059.77 161.343C1060.67 160.484 1061.12 159.271 1061.12 157.703C1061.12 156.135 1060.67 154.921 1059.77 154.063C1058.88 153.204 1057.51 152.775 1055.68 152.775H1050.48V162.631H1055.68ZM1100.32 177.415H1085.65L1083.29 184.359H1073.27L1087.49 145.047H1098.58L1112.81 184.359H1102.67L1100.32 177.415ZM1097.85 170.023L1092.98 155.631L1088.17 170.023H1097.85ZM1152.3 184.359H1142.73L1126.71 160.111V184.359H1117.13V145.047H1126.71L1142.73 169.407V145.047H1152.3V184.359ZM1168.82 145.047V184.359H1159.24V145.047H1168.82Z" fill="url(#paint6_linear_3_141)" shape-rendering="crispEdges"/>
</g>
<g filter="url(#filter4_d_3_141)">
<path d="M709.024 232.094V234.684H698.419V242.909H707.029V245.499H698.419V256.489H695.234V232.094H709.024ZM725.716 256.489L719.906 246.514H716.056V256.489H712.871V232.094H720.746C722.589 232.094 724.141 232.409 725.401 233.039C726.684 233.669 727.641 234.52 728.271 235.594C728.901 236.667 729.216 237.892 729.216 239.269C729.216 240.949 728.726 242.43 727.746 243.714C726.789 244.997 725.342 245.849 723.406 246.269L729.531 256.489H725.716ZM716.056 243.959H720.746C722.472 243.959 723.767 243.539 724.631 242.699C725.494 241.835 725.926 240.692 725.926 239.269C725.926 237.822 725.494 236.702 724.631 235.909C723.791 235.115 722.496 234.719 720.746 234.719H716.056V243.959ZM745.225 256.734C742.961 256.734 740.896 256.209 739.03 255.159C737.163 254.085 735.681 252.604 734.585 250.714C733.511 248.8 732.975 246.654 732.975 244.274C732.975 241.894 733.511 239.759 734.585 237.869C735.681 235.955 737.163 234.474 739.03 233.424C740.896 232.35 742.961 231.814 745.225 231.814C747.511 231.814 749.588 232.35 751.455 233.424C753.321 234.474 754.791 235.944 755.865 237.834C756.938 239.724 757.475 241.87 757.475 244.274C757.475 246.677 756.938 248.824 755.865 250.714C754.791 252.604 753.321 254.085 751.455 255.159C749.588 256.209 747.511 256.734 745.225 256.734ZM745.225 253.969C746.928 253.969 748.456 253.572 749.81 252.779C751.186 251.985 752.26 250.854 753.03 249.384C753.823 247.914 754.22 246.21 754.22 244.274C754.22 242.314 753.823 240.61 753.03 239.164C752.26 237.694 751.198 236.562 749.845 235.769C748.491 234.975 746.951 234.579 745.225 234.579C743.498 234.579 741.958 234.975 740.605 235.769C739.251 236.562 738.178 237.694 737.385 239.164C736.615 240.61 736.23 242.314 736.23 244.274C736.23 246.21 736.615 247.914 737.385 249.384C738.178 250.854 739.251 251.985 740.605 252.779C741.981 253.572 743.521 253.969 745.225 253.969ZM780.859 256.489H777.674L764.864 237.064V256.489H761.679V232.059H764.864L777.674 251.449V232.059H780.859V256.489ZM801.304 232.094V234.684H794.654V256.489H791.469V234.684H784.784V232.094H801.304ZM808.409 234.684V242.839H817.299V245.464H808.409V253.864H818.349V256.489H805.224V232.059H818.349V234.684H808.409ZM842.349 256.489H839.164L826.354 237.064V256.489H823.169V232.059H826.354L839.164 251.449V232.059H842.349V256.489ZM855.373 232.094C858.033 232.094 860.331 232.595 862.268 233.599C864.228 234.579 865.721 235.99 866.748 237.834C867.798 239.677 868.323 241.847 868.323 244.344C868.323 246.84 867.798 249.01 866.748 250.854C865.721 252.674 864.228 254.074 862.268 255.054C860.331 256.01 858.033 256.489 855.373 256.489H847.778V232.094H855.373ZM855.373 253.864C858.523 253.864 860.926 253.035 862.583 251.379C864.24 249.699 865.068 247.354 865.068 244.344C865.068 241.31 864.228 238.942 862.548 237.239C860.891 235.535 858.5 234.684 855.373 234.684H850.963V253.864H855.373ZM889.45 232.094C892.11 232.094 894.409 232.595 896.345 233.599C898.305 234.579 899.799 235.99 900.825 237.834C901.875 239.677 902.4 241.847 902.4 244.344C902.4 246.84 901.875 249.01 900.825 250.854C899.799 252.674 898.305 254.074 896.345 255.054C894.409 256.01 892.11 256.489 889.45 256.489H881.855V232.094H889.45ZM889.45 253.864C892.6 253.864 895.004 253.035 896.66 251.379C898.317 249.699 899.145 247.354 899.145 244.344C899.145 241.31 898.305 238.942 896.625 237.239C894.969 235.535 892.577 234.684 889.45 234.684H885.04V253.864H889.45ZM909.786 234.684V242.839H918.676V245.464H909.786V253.864H919.726V256.489H906.601V232.059H919.726V234.684H909.786ZM944.706 232.094L935.501 256.489H931.826L922.621 232.094H926.016L933.681 253.129L941.346 232.094H944.706ZM951.383 234.684V242.839H960.273V245.464H951.383V253.864H961.323V256.489H948.198V232.059H961.323V234.684H951.383ZM969.327 253.899H977.867V256.489H966.142V232.094H969.327V253.899ZM992.31 256.734C990.046 256.734 987.981 256.209 986.115 255.159C984.248 254.085 982.766 252.604 981.67 250.714C980.596 248.8 980.06 246.654 980.06 244.274C980.06 241.894 980.596 239.759 981.67 237.869C982.766 235.955 984.248 234.474 986.115 233.424C987.981 232.35 990.046 231.814 992.31 231.814C994.596 231.814 996.673 232.35 998.54 233.424C1000.41 234.474 1001.88 235.944 1002.95 237.834C1004.02 239.724 1004.56 241.87 1004.56 244.274C1004.56 246.677 1004.02 248.824 1002.95 250.714C1001.88 252.604 1000.41 254.085 998.54 255.159C996.673 256.209 994.596 256.734 992.31 256.734ZM992.31 253.969C994.013 253.969 995.541 253.572 996.895 252.779C998.271 251.985 999.345 250.854 1000.11 249.384C1000.91 247.914 1001.3 246.21 1001.3 244.274C1001.3 242.314 1000.91 240.61 1000.11 239.164C999.345 237.694 998.283 236.562 996.93 235.769C995.576 234.975 994.036 234.579 992.31 234.579C990.583 234.579 989.043 234.975 987.69 235.769C986.336 236.562 985.263 237.694 984.47 239.164C983.7 240.61 983.315 242.314 983.315 244.274C983.315 246.21 983.7 247.914 984.47 249.384C985.263 250.854 986.336 251.985 987.69 252.779C989.066 253.572 990.606 253.969 992.31 253.969ZM1025.07 239.234C1025.07 241.264 1024.37 242.955 1022.97 244.309C1021.6 245.639 1019.49 246.304 1016.64 246.304H1011.95V256.489H1008.76V232.094H1016.64C1019.39 232.094 1021.48 232.759 1022.9 234.089C1024.35 235.419 1025.07 237.134 1025.07 239.234ZM1016.64 243.679C1018.41 243.679 1019.72 243.294 1020.56 242.524C1021.4 241.754 1021.82 240.657 1021.82 239.234C1021.82 236.224 1020.09 234.719 1016.64 234.719H1011.95V243.679H1016.64ZM1032.22 234.684V242.839H1041.11V245.464H1032.22V253.864H1042.16V256.489H1029.03V232.059H1042.16V234.684H1032.22ZM1059.82 256.489L1054.01 246.514H1050.16V256.489H1046.98V232.094H1054.85C1056.7 232.094 1058.25 232.409 1059.51 233.039C1060.79 233.669 1061.75 234.52 1062.38 235.594C1063.01 236.667 1063.32 237.892 1063.32 239.269C1063.32 240.949 1062.83 242.43 1061.85 243.714C1060.9 244.997 1059.45 245.849 1057.51 246.269L1063.64 256.489H1059.82ZM1050.16 243.959H1054.85C1056.58 243.959 1057.87 243.539 1058.74 242.699C1059.6 241.835 1060.03 240.692 1060.03 239.269C1060.03 237.822 1059.6 236.702 1058.74 235.909C1057.9 235.115 1056.6 234.719 1054.85 234.719H1050.16V243.959Z" fill="url(#paint7_linear_3_141)" shape-rendering="crispEdges"/>
</g>
<g filter="url(#filter5_d_3_141)">
<line y1="-1.5" x2="458.302" y2="-1.5" transform="matrix(1 -5.52189e-05 0.00010475 1 644.639 209.514)" stroke="white" stroke-width="3"/>
</g>
<g clip-path="url(#clip0_3_141)">
<g filter="url(#filter6_d_3_141)">
<path d="M625.994 236.523C623.734 228.437 611.697 223.591 595.199 223.156C594.275 206.337 589.2 194.192 581.218 192.113C579.373 191.617 577.4 191.695 575.383 192.269L576.934 197.817C578.052 197.499 579.014 197.467 579.886 197.675C583.735 198.675 587.235 205.655 588.774 215.477C589.16 217.892 589.411 220.479 589.579 223.144C584.481 223.306 579.021 223.866 573.384 224.825C568.815 221.157 564.243 217.946 559.793 215.265C565.61 205.471 571.895 199.224 576.951 197.785L575.4 192.237C568.715 194.14 561.326 201.507 554.843 212.484C543.643 206.593 533.541 204.257 526.856 206.16L528.407 211.708C533.44 210.276 542.05 212.257 552.069 217.489C549.688 222.115 547.447 227.238 545.5 232.761C540.173 234.922 535.228 237.323 530.804 239.898C529.55 237.569 528.462 235.273 527.523 233.043C523.723 223.865 523.067 216.075 525.799 213.175C526.404 212.52 527.296 212.051 528.414 211.733L526.863 206.185C524.821 206.766 523.099 207.74 521.759 209.142C516.054 215.116 518.036 228.115 525.971 242.885C512.185 251.965 504.475 262.404 506.729 270.465C508.99 278.55 521.027 283.397 537.525 283.831C538.448 300.65 543.524 312.795 551.506 314.875C553.351 315.37 555.323 315.292 557.365 314.711C564.051 312.808 571.439 305.442 577.923 294.465C589.123 300.355 599.224 302.691 605.909 300.788C607.951 300.207 609.673 299.234 611.014 297.832C616.718 291.857 614.737 278.858 606.801 264.089C620.545 255.048 628.248 244.583 625.994 236.523V236.523ZM589.703 228.937C589.701 232.402 589.508 236.029 589.169 239.698C587.616 237.991 586.014 236.298 584.315 234.633C582.64 232.961 580.906 231.36 579.186 229.808C582.784 229.348 586.296 229.047 589.703 228.937ZM585.977 258.601C585.02 262.499 583.966 266.237 582.776 269.771C579.244 271.126 575.622 272.344 571.927 273.396C568.256 274.441 564.536 275.311 560.855 276.037C558.009 273.65 555.157 271.051 552.329 268.257C549.57 265.524 546.967 262.693 544.504 259.795C545.079 256.032 545.848 252.214 546.76 248.436C547.717 244.538 548.772 240.8 549.962 237.266C553.494 235.911 557.116 234.693 560.811 233.641C564.482 232.596 568.201 231.726 571.883 231C574.728 233.387 577.581 235.986 580.409 238.78C583.168 241.513 585.77 244.344 588.234 247.242C587.634 251.012 586.889 254.823 585.977 258.601ZM592.925 253.132C595.17 256.092 597.22 259.107 599.048 262.078C596.086 263.781 592.919 265.407 589.589 266.919C590.245 264.665 590.886 262.36 591.441 260.027C592.003 257.718 592.485 255.406 592.925 253.132ZM575.697 286.692C572.768 284.947 569.763 282.929 566.713 280.654C568.928 280.131 571.186 279.569 573.447 278.926C575.732 278.276 577.979 277.582 580.156 276.828C578.782 280.362 577.266 283.667 575.697 286.692ZM553.513 277.186C549.915 277.646 546.403 277.947 542.996 278.057C542.998 274.592 543.191 270.965 543.53 267.297C545.084 269.003 546.685 270.696 548.385 272.361C550.084 274.026 551.793 275.634 553.513 277.186ZM557.002 220.302C559.931 222.047 562.936 224.066 565.987 226.34C563.771 226.863 561.513 227.425 559.253 228.068C556.968 228.719 554.721 229.412 552.543 230.166C553.917 226.632 555.434 223.327 557.002 220.302ZM543.11 240.075C542.455 242.33 541.813 244.634 541.258 246.967C540.696 249.276 540.207 251.564 539.767 253.837C537.522 250.877 535.472 247.862 533.644 244.891C536.613 243.213 539.78 241.587 543.11 240.075V240.075ZM529.819 277.483C520.162 276.176 513.218 272.835 512.126 268.929C511.034 265.023 515.217 258.488 522.779 252.307C524.612 250.791 526.668 249.32 528.81 247.878C531.559 252.36 534.802 256.916 538.516 261.472C537.727 267.283 537.34 272.845 537.335 278.084C534.713 277.998 532.191 277.802 529.819 277.483ZM552.838 309.312C548.989 308.312 545.489 301.332 543.95 291.51C543.563 289.096 543.312 286.508 543.144 283.843C548.243 283.681 553.703 283.121 559.339 282.162C563.908 285.83 568.48 289.041 572.931 291.723C567.113 301.516 560.829 307.763 555.772 309.202C554.672 309.488 553.685 309.527 552.838 309.312V309.312ZM605.201 273.944C609 283.123 609.656 290.913 606.924 293.812C606.32 294.467 605.428 294.936 604.309 295.255C599.277 296.687 590.666 294.706 580.647 289.473C583.028 284.847 585.27 279.724 587.216 274.201C592.543 272.041 597.488 269.64 601.912 267.065C603.174 269.418 604.286 271.707 605.201 273.944V273.944ZM609.92 254.687C608.087 256.203 606.031 257.674 603.889 259.116C601.14 254.635 597.898 250.078 594.183 245.522C594.973 239.711 595.359 234.149 595.364 228.91C597.987 228.997 600.508 229.192 602.905 229.504C612.561 230.811 619.505 234.153 620.598 238.059C621.665 241.971 617.483 248.506 609.92 254.687V254.687Z" fill="#61DAFB" fill-opacity="0.5"/>
<path d="M569.516 264.87C575.652 263.124 579.203 256.618 577.447 250.339C575.692 244.06 569.294 240.385 563.159 242.131C557.023 243.877 553.472 250.383 555.228 256.662C556.983 262.941 563.381 266.616 569.516 264.87Z" fill="#61DAFB" fill-opacity="0.5"/>
</g>
</g>
<g filter="url(#filter7_d_3_141)">
<g clip-path="url(#clip1_3_141)">
<path d="M1145.57 195.142L1258.19 194.437L1258.92 312.783L1146.29 313.488L1145.57 195.142Z" fill="#F0DB4F" fill-opacity="0.99"/>
<g filter="url(#filter8_d_3_141)">
<path d="M1249.53 284.616C1248.67 279.221 1245.29 274.708 1235.34 270.541C1231.88 268.897 1228.03 267.729 1226.87 264.991C1226.45 263.396 1226.39 262.497 1226.65 261.528C1227.36 258.384 1230.92 257.383 1233.76 258.266C1235.58 258.895 1237.31 260.358 1238.37 262.703C1243.21 259.365 1243.19 259.388 1246.57 257.094C1245.32 255.077 1244.65 254.147 1243.83 253.286C1240.89 249.873 1236.89 248.132 1230.53 248.307C1229.42 248.46 1228.31 248.625 1227.21 248.778C1224.04 249.641 1221.02 251.415 1219.25 253.778C1213.96 260.167 1215.55 271.283 1222.07 275.821C1228.49 280.821 1237.88 281.91 1239.11 286.616C1240.31 292.38 1235.12 294.28 1229.95 293.648C1226.13 292.84 1224 290.817 1221.69 287.13C1217.48 289.721 1217.48 289.721 1213.16 292.37C1214.21 294.726 1215.29 295.787 1217.03 297.824C1225.24 306.469 1245.65 305.914 1249.23 292.729C1249.38 292.278 1250.35 289.257 1249.53 284.616V284.616ZM1207.13 249.151L1196.59 249.217C1196.65 258.779 1196.67 268.274 1196.73 277.836C1196.76 283.922 1197.1 289.5 1196.17 291.216C1194.64 294.589 1190.65 294.198 1188.82 293.557C1186.97 292.612 1186.02 291.257 1184.91 289.34C1184.61 288.791 1184.38 288.365 1184.31 288.331C1181.46 290.183 1178.62 292.045 1175.78 293.897C1177.22 296.959 1179.33 299.612 1182.03 301.328C1186.06 303.834 1191.46 304.576 1197.1 303.18C1200.76 302.032 1203.92 299.684 1205.55 296.13C1207.92 291.468 1207.37 285.847 1207.31 279.626C1207.31 269.479 1207.19 259.332 1207.13 249.151Z" fill="#323330" fill-opacity="0.8" shape-rendering="crispEdges"/>
</g>
</g>
<rect width="112.627" height="118.348" rx="9" transform="matrix(0.999981 -0.0062578 0.00614821 0.999981 1145.57 195.142)" stroke="black" stroke-opacity="0.87" shape-rendering="crispEdges"/>
</g>
<g filter="url(#filter9_i_3_141)">
<g clip-path="url(#clip2_3_141)">
<path d="M179.307 188.37L136.488 72.7918L247.853 40.9409L271.431 161.809L229.921 188.534L179.307 188.37Z" fill="#1B73BA" fill-opacity="0.5"/>
<path d="M226.686 177.112L195.747 67.8894L241.625 54.8336L261.133 154.912L226.686 177.112Z" fill="#1C88C7" fill-opacity="0.5"/>
<g filter="url(#filter10_d_3_141)">
<path d="M234.153 71.9174L163.646 92.2452L169.6 105.971L203.058 96.3248L174.292 120.491L180.111 133.742L228.618 119.757L232.32 139.538L216.84 147.605L200.822 147.933L196.575 137.317L182.901 141.26L191.183 163.497L222.92 163.526L248.403 146.141L239.388 100.607L209.672 109.175L238.106 85.8773L234.153 71.9174Z" fill="white" fill-opacity="0.5" shape-rendering="crispEdges"/>
</g>
</g>
</g>
<g filter="url(#filter11_i_3_141)">
<g clip-path="url(#clip3_3_141)">
<path d="M47.7612 150.838L2.07727 60.348L93.9652 22.6278L123.756 119.46L90.7088 145.72L47.7612 150.838Z" fill="#E34F26" fill-opacity="0.5"/>
<path d="M87.0392 136.674L51.9482 50.171L89.8077 34.6856L114.461 114.863L87.0392 136.674Z" fill="#EF652A" fill-opacity="0.5"/>
<g filter="url(#filter12_d_3_141)">
<path d="M88.1264 60.4632L84.5588 48.5875L26.3969 72.6021L43.8304 106.329L83.9705 89.7556L88.4614 105.356L77.0076 114.119L62.4348 115.736L58.1232 107.101L46.5904 111.863L55.5563 129.43L81.9254 126.244L103.132 109.787L91.9215 72.9042L49.7659 90.31L43.7014 78.806L88.1264 60.4632Z" fill="white" fill-opacity="0.5" shape-rendering="crispEdges"/>
</g>
</g>
</g>
<g filter="url(#filter13_d_3_141)">
<path d="M1240.68 82.4961C1234.33 82.5283 1228.83 83.9001 1224.22 85.9427C1222.52 82.9112 1220.82 80.2624 1220.53 78.2843C1220.21 75.9867 1219.82 74.5824 1220.21 71.8384C1220.6 69.0938 1222.38 65.2008 1222.38 64.8817C1222.34 64.5945 1221.99 63.1905 1218.33 63.1585C1214.68 63.1266 1211.52 63.7967 1211.17 64.6583C1210.81 65.5199 1210.1 67.4983 1209.64 69.5406C1209.01 72.5401 1202.34 83.1662 1198.54 88.7505C1197.3 86.5806 1196.24 84.666 1196.02 83.134C1195.71 80.8368 1195.32 79.4324 1195.71 76.6884C1196.1 73.9438 1197.87 70.0511 1197.87 69.732C1197.83 69.4448 1197.48 68.0408 1193.83 68.0089C1190.17 67.977 1187.02 68.6471 1186.66 69.5087C1186.31 70.3702 1185.92 72.4125 1185.14 74.3909C1184.39 76.3693 1175.53 94.1114 1173.22 98.7384C1172.05 101.1 1171.02 102.982 1170.28 104.259C1169.53 105.535 1170.24 104.355 1170.17 104.482C1169.53 105.567 1169.18 106.173 1169.18 106.173V106.206C1168.68 107.003 1168.15 107.769 1167.9 107.769C1167.72 107.769 1167.37 105.631 1167.97 102.696C1169.28 96.5366 1172.48 86.9319 1172.44 86.5809C1172.44 86.4214 1173.04 84.7298 1170.38 83.8685C1167.79 83.007 1166.87 84.4429 1166.66 84.4429C1166.45 84.4429 1166.27 84.9535 1166.27 84.9535C1166.27 84.9535 1169.14 74.1363 1160.77 74.1363C1155.52 74.1363 1148.29 79.2738 1144.71 83.9646C1142.44 85.0814 1137.61 87.4425 1132.51 89.9637C1130.56 90.921 1128.53 91.9421 1126.62 92.8675L1126.23 92.484C1116.09 82.7514 1097.33 75.8588 1098.11 62.7756C1098.39 58.021 1100.23 45.4803 1134.14 30.2911C1161.91 17.8461 1184.14 21.2605 1188.01 28.8551C1193.51 39.7046 1176.13 59.8718 1147.26 62.7756C1136.27 63.8925 1130.49 60.0633 1129.03 58.6273C1127.51 57.1275 1127.29 57.0637 1126.73 57.3509C1125.8 57.7976 1126.37 59.1379 1126.73 59.9356C1127.58 61.946 1131.12 65.5199 1137.15 67.3069C1142.44 68.8705 1155.35 69.732 1170.95 64.3073C1188.44 58.2125 1202.09 41.3001 1198.08 27.1639C1194 12.7724 1167.48 8.04974 1142.4 16.0592C1127.47 20.8457 1111.3 28.3127 1099.67 38.1091C1085.84 49.7244 1083.64 59.8718 1084.56 64.0839C1087.79 79.1136 1110.8 88.91 1120.02 96.1536C1119.56 96.3767 1119.14 96.6001 1118.75 96.7918C1114.14 98.8338 1096.58 107.099 1092.18 115.842C1087.22 125.734 1092.96 132.85 1096.79 133.808C1108.64 136.775 1120.77 131.446 1127.33 122.671C1133.85 113.896 1133.07 102.504 1130.06 97.3024L1129.95 97.1109L1133.57 95.1963C1135.91 93.9518 1138.22 92.8031 1140.24 91.8135C1139.1 94.5897 1138.29 97.8765 1137.86 102.663C1137.37 108.279 1139.92 115.555 1143.29 118.427C1144.78 119.671 1146.55 119.703 1147.65 119.703C1151.55 119.703 1153.33 116.799 1155.28 113.321C1157.69 109.077 1159.82 104.163 1159.82 104.163C1159.82 104.163 1157.16 117.469 1164.43 117.469C1167.09 117.469 1169.75 114.374 1170.95 112.778V112.81C1170.95 112.81 1171.02 112.715 1171.16 112.491C1171.31 112.293 1171.45 112.091 1171.59 111.885V111.822C1172.65 110.162 1175.03 106.365 1178.58 100.079C1183.15 91.9734 1187.55 81.826 1187.55 81.826C1187.55 81.826 1187.97 84.315 1189.29 88.3995C1190.07 90.825 1191.77 93.4732 1193.08 96.0579C1192.02 97.3981 1191.38 98.1643 1191.38 98.1643L1191.41 98.1962C1190.56 99.2173 1189.61 100.303 1188.61 101.387C1185 105.28 1180.67 109.716 1180.1 110.992C1179.43 112.492 1179.57 113.609 1180.88 114.503C1181.84 115.141 1183.54 115.268 1185.35 115.141C1188.61 114.949 1190.88 114.215 1192.02 113.768C1193.79 113.194 1195.81 112.332 1197.76 111.056C1201.31 108.695 1203.47 105.344 1203.26 100.877C1203.15 98.4199 1202.27 95.9947 1201.17 93.6972C1201.49 93.2824 1201.81 92.8672 1202.12 92.4208C1207.73 85.0492 1212.06 76.9444 1212.06 76.9444C1212.06 76.9444 1212.48 79.4333 1213.79 83.5178C1214.47 85.592 1215.81 87.8579 1217.02 90.0917C1211.77 93.9528 1208.47 98.4202 1207.34 101.356C1205.25 106.781 1206.88 109.238 1209.96 109.812C1211.35 110.067 1213.33 109.493 1214.82 108.919C1216.67 108.376 1218.9 107.45 1220.96 106.079C1224.5 103.717 1227.91 100.431 1227.73 95.995C1227.62 93.9528 1227.02 91.9424 1226.21 90.0278C1230.67 88.3685 1236.45 87.4112 1243.8 88.209C1259.58 89.8683 1262.7 98.7393 1262.1 102.441C1261.49 106.143 1258.2 108.185 1257.1 108.823C1256 109.429 1255.64 109.653 1255.75 110.099C1255.89 110.77 1256.39 110.738 1257.34 110.61C1258.66 110.418 1265.64 107.579 1265.93 100.75C1266.35 91.9737 1257.1 82.4007 1240.68 82.4961ZM1118.96 119.416C1113.75 124.554 1106.4 126.5 1103.28 124.841C1099.91 123.086 1101.23 115.523 1107.65 110.066C1111.55 106.748 1116.62 103.684 1119.95 101.802C1120.7 101.387 1121.83 100.781 1123.18 100.047C1123.39 99.9193 1123.53 99.8552 1123.53 99.8552C1123.78 99.7276 1124.07 99.568 1124.35 99.4085C1126.73 107.195 1124.46 114.023 1118.96 119.416ZM1157.08 96.0898C1155.28 100.079 1151.45 110.322 1149.14 109.747C1147.15 109.269 1145.95 101.515 1148.75 93.8561C1150.17 89.9947 1153.18 85.3999 1154.96 83.6126C1157.83 80.7407 1160.95 79.7834 1161.73 80.9641C1162.65 82.4961 1158.22 93.6008 1157.08 96.0898ZM1188.54 109.62C1187.76 109.971 1187.05 110.226 1186.73 110.035C1186.48 109.907 1187.05 109.429 1187.05 109.429C1187.05 109.429 1190.99 105.631 1192.55 103.876C1193.44 102.855 1194.5 101.675 1195.63 100.334V100.717C1195.63 105.312 1190.74 108.375 1188.54 109.62ZM1212.8 104.642C1212.23 104.259 1212.3 103.078 1214.22 99.3766C1214.96 97.9087 1216.67 95.4516 1219.61 93.1222C1219.96 94.0795 1220.18 95.0045 1220.14 95.8664C1220.11 101.61 1215.57 103.748 1212.8 104.642Z" fill="#CF649A"/>
</g>
<defs>
<filter id="filter0_d_3_141" x="-4" y="0" width="1296" height="332.776" filterUnits="userSpaceOnUse" color-interpolation-filters="sRGB">
<feFlood flood-opacity="0" result="BackgroundImageFix"/>
<feColorMatrix in="SourceAlpha" type="matrix" values="0 0 0 0 0 0 0 0 0 0 0 0 0 0 0 0 0 0 127 0" result="hardAlpha"/>
<feOffset dy="4"/>
<feGaussianBlur stdDeviation="2"/>
<feComposite in2="hardAlpha" operator="out"/>
<feColorMatrix type="matrix" values="0 0 0 0 0 0 0 0 0 0 0 0 0 0 0 0 0 0 0.25 0"/>
<feBlend mode="normal" in2="BackgroundImageFix" result="effect1_dropShadow_3_141"/>
<feBlend mode="normal" in="SourceGraphic" in2="effect1_dropShadow_3_141" result="shape"/>
</filter>
<filter id="filter1_i_3_141" x="292.321" y="10.1202" width="368.435" height="211.905" filterUnits="userSpaceOnUse" color-interpolation-filters="sRGB">
<feFlood flood-opacity="0" result="BackgroundImageFix"/>
<feBlend mode="normal" in="SourceGraphic" in2="BackgroundImageFix" result="shape"/>
<feColorMatrix in="SourceAlpha" type="matrix" values="0 0 0 0 0 0 0 0 0 0 0 0 0 0 0 0 0 0 127 0" result="hardAlpha"/>
<feOffset dy="4"/>
<feGaussianBlur stdDeviation="2"/>
<feComposite in2="hardAlpha" operator="arithmetic" k2="-1" k3="1"/>
<feColorMatrix type="matrix" values="0 0 0 0 0 0 0 0 0 0 0 0 0 0 0 0 0 0 0.25 0"/>
<feBlend mode="normal" in2="shape" result="effect1_innerShadow_3_141"/>
</filter>
<filter id="filter2_d_3_141" x="336.886" y="37.266" width="289.772" height="162.035" filterUnits="userSpaceOnUse" color-interpolation-filters="sRGB">
<feFlood flood-opacity="0" result="BackgroundImageFix"/>
<feColorMatrix in="SourceAlpha" type="matrix" values="0 0 0 0 0 0 0 0 0 0 0 0 0 0 0 0 0 0 127 0" result="hardAlpha"/>
<feOffset dx="8" dy="5"/>
<feGaussianBlur stdDeviation="2"/>
<feComposite in2="hardAlpha" operator="out"/>
<feColorMatrix type="matrix" values="0 0 0 0 0 0 0 0 0 0 0 0 0 0 0 0 0 0 0.25 0"/>
<feBlend mode="normal" in2="BackgroundImageFix" result="effect1_dropShadow_3_141"/>
<feBlend mode="normal" in="SourceGraphic" in2="effect1_dropShadow_3_141" result="shape"/>
</filter>
<filter id="filter3_d_3_141" x="574.718" y="144.487" width="606.102" height="55.592" filterUnits="userSpaceOnUse" color-interpolation-filters="sRGB">
<feFlood flood-opacity="0" result="BackgroundImageFix"/>
<feColorMatrix in="SourceAlpha" type="matrix" values="0 0 0 0 0 0 0 0 0 0 0 0 0 0 0 0 0 0 127 0" result="hardAlpha"/>
<feOffset dx="8" dy="5"/>
<feGaussianBlur stdDeviation="2"/>
<feComposite in2="hardAlpha" operator="out"/>
<feColorMatrix type="matrix" values="0 0 0 0 0.196078 0 0 0 0 0.2 0 0 0 0 0.188235 0 0 0 0.8 0"/>
<feBlend mode="normal" in2="BackgroundImageFix" result="effect1_dropShadow_3_141"/>
<feBlend mode="normal" in="SourceGraphic" in2="effect1_dropShadow_3_141" result="shape"/>
</filter>
<filter id="filter4_d_3_141" x="695.234" y="231.814" width="380.403" height="33.92" filterUnits="userSpaceOnUse" color-interpolation-filters="sRGB">
<feFlood flood-opacity="0" result="BackgroundImageFix"/>
<feColorMatrix in="SourceAlpha" type="matrix" values="0 0 0 0 0 0 0 0 0 0 0 0 0 0 0 0 0 0 127 0" result="hardAlpha"/>
<feOffset dx="8" dy="5"/>
<feGaussianBlur stdDeviation="2"/>
<feComposite in2="hardAlpha" operator="out"/>
<feColorMatrix type="matrix" values="0 0 0 0 0.196078 0 0 0 0 0.2 0 0 0 0 0.188235 0 0 0 0.8 0"/>
<feBlend mode="normal" in2="BackgroundImageFix" result="effect1_dropShadow_3_141"/>
<feBlend mode="normal" in="SourceGraphic" in2="effect1_dropShadow_3_141" result="shape"/>
</filter>
<filter id="filter5_d_3_141" x="644.639" y="206.489" width="470.302" height="12.0253" filterUnits="userSpaceOnUse" color-interpolation-filters="sRGB">
<feFlood flood-opacity="0" result="BackgroundImageFix"/>
<feColorMatrix in="SourceAlpha" type="matrix" values="0 0 0 0 0 0 0 0 0 0 0 0 0 0 0 0 0 0 127 0" result="hardAlpha"/>
<feOffset dx="8" dy="5"/>
<feGaussianBlur stdDeviation="2"/>
<feComposite in2="hardAlpha" operator="out"/>
<feColorMatrix type="matrix" values="0 0 0 0 0.196078 0 0 0 0 0.2 0 0 0 0 0.188235 0 0 0 0.8 0"/>
<feBlend mode="normal" in2="BackgroundImageFix" result="effect1_dropShadow_3_141"/>
<feBlend mode="normal" in="SourceGraphic" in2="effect1_dropShadow_3_141" result="shape"/>
</filter>
<filter id="filter6_d_3_141" x="502.341" y="191.785" width="128.042" height="135.417" filterUnits="userSpaceOnUse" color-interpolation-filters="sRGB">
<feFlood flood-opacity="0" result="BackgroundImageFix"/>
<feColorMatrix in="SourceAlpha" type="matrix" values="0 0 0 0 0 0 0 0 0 0 0 0 0 0 0 0 0 0 127 0" result="hardAlpha"/>
<feOffset dy="8"/>
<feGaussianBlur stdDeviation="2"/>
<feComposite in2="hardAlpha" operator="out"/>
<feColorMatrix type="matrix" values="0 0 0 0 0 0 0 0 0 0 0 0 0 0 0 0 0 0 0.25 0"/>
<feBlend mode="normal" in2="BackgroundImageFix" result="effect1_dropShadow_3_141"/>
<feBlend mode="normal" in="SourceGraphic" in2="effect1_dropShadow_3_141" result="shape"/>
</filter>
<filter id="filter7_d_3_141" x="1141.57" y="194.437" width="121.353" height="127.05" filterUnits="userSpaceOnUse" color-interpolation-filters="sRGB">
<feFlood flood-opacity="0" result="BackgroundImageFix"/>
<feColorMatrix in="SourceAlpha" type="matrix" values="0 0 0 0 0 0 0 0 0 0 0 0 0 0 0 0 0 0 127 0" result="hardAlpha"/>
<feOffset dy="4"/>
<feGaussianBlur stdDeviation="2"/>
<feComposite in2="hardAlpha" operator="out"/>
<feColorMatrix type="matrix" values="0 0 0 0 0 0 0 0 0 0 0 0 0 0 0 0 0 0 0.25 0"/>
<feBlend mode="normal" in2="BackgroundImageFix" result="effect1_dropShadow_3_141"/>
<feBlend mode="normal" in="SourceGraphic" in2="effect1_dropShadow_3_141" result="shape"/>
</filter>
<filter id="filter8_d_3_141" x="1171.78" y="248.295" width="82.0785" height="63.5823" filterUnits="userSpaceOnUse" color-interpolation-filters="sRGB">
<feFlood flood-opacity="0" result="BackgroundImageFix"/>
<feColorMatrix in="SourceAlpha" type="matrix" values="0 0 0 0 0 0 0 0 0 0 0 0 0 0 0 0 0 0 127 0" result="hardAlpha"/>
<feOffset dy="4"/>
<feGaussianBlur stdDeviation="2"/>
<feComposite in2="hardAlpha" operator="out"/>
<feColorMatrix type="matrix" values="0 0 0 0 0 0 0 0 0 0 0 0 0 0 0 0 0 0 0.25 0"/>
<feBlend mode="normal" in2="BackgroundImageFix" result="effect1_dropShadow_3_141"/>
<feBlend mode="normal" in="SourceGraphic" in2="effect1_dropShadow_3_141" result="shape"/>
</filter>
<filter id="filter9_i_3_141" x="136.425" y="40.4809" width="148.788" height="168.44" filterUnits="userSpaceOnUse" color-interpolation-filters="sRGB">
<feFlood flood-opacity="0" result="BackgroundImageFix"/>
<feBlend mode="normal" in="SourceGraphic" in2="BackgroundImageFix" result="shape"/>
<feColorMatrix in="SourceAlpha" type="matrix" values="0 0 0 0 0 0 0 0 0 0 0 0 0 0 0 0 0 0 127 0" result="hardAlpha"/>
<feOffset dy="4"/>
<feGaussianBlur stdDeviation="2"/>
<feComposite in2="hardAlpha" operator="arithmetic" k2="-1" k3="1"/>
<feColorMatrix type="matrix" values="0 0 0 0 0 0 0 0 0 0 0 0 0 0 0 0 0 0 0.25 0"/>
<feBlend mode="normal" in2="shape" result="effect1_innerShadow_3_141"/>
</filter>
<filter id="filter10_d_3_141" x="159.646" y="71.9174" width="92.7565" height="99.609" filterUnits="userSpaceOnUse" color-interpolation-filters="sRGB">
<feFlood flood-opacity="0" result="BackgroundImageFix"/>
<feColorMatrix in="SourceAlpha" type="matrix" values="0 0 0 0 0 0 0 0 0 0 0 0 0 0 0 0 0 0 127 0" result="hardAlpha"/>
<feOffset dy="4"/>
<feGaussianBlur stdDeviation="2"/>
<feComposite in2="hardAlpha" operator="out"/>
<feColorMatrix type="matrix" values="0 0 0 0 0 0 0 0 0 0 0 0 0 0 0 0 0 0 0.25 0"/>
<feBlend mode="normal" in2="BackgroundImageFix" result="effect1_dropShadow_3_141"/>
<feBlend mode="normal" in="SourceGraphic" in2="effect1_dropShadow_3_141" result="shape"/>
</filter>
<filter id="filter11_i_3_141" x="2.00623" y="22.2645" width="134.333" height="146.728" filterUnits="userSpaceOnUse" color-interpolation-filters="sRGB">
<feFlood flood-opacity="0" result="BackgroundImageFix"/>
<feBlend mode="normal" in="SourceGraphic" in2="BackgroundImageFix" result="shape"/>
<feColorMatrix in="SourceAlpha" type="matrix" values="0 0 0 0 0 0 0 0 0 0 0 0 0 0 0 0 0 0 127 0" result="hardAlpha"/>
<feOffset dy="4"/>
<feGaussianBlur stdDeviation="2"/>
<feComposite in2="hardAlpha" operator="arithmetic" k2="-1" k3="1"/>
<feColorMatrix type="matrix" values="0 0 0 0 0 0 0 0 0 0 0 0 0 0 0 0 0 0 0.25 0"/>
<feBlend mode="normal" in2="shape" result="effect1_innerShadow_3_141"/>
</filter>
<filter id="filter12_d_3_141" x="21.3969" y="48.5875" width="86.7349" height="92.8429" filterUnits="userSpaceOnUse" color-interpolation-filters="sRGB">
<feFlood flood-opacity="0" result="BackgroundImageFix"/>
<feColorMatrix in="SourceAlpha" type="matrix" values="0 0 0 0 0 0 0 0 0 0 0 0 0 0 0 0 0 0 127 0" result="hardAlpha"/>
<feOffset dy="7"/>
<feGaussianBlur stdDeviation="2.5"/>
<feComposite in2="hardAlpha" operator="out"/>
<feColorMatrix type="matrix" values="0 0 0 0 0 0 0 0 0 0 0 0 0 0 0 0 0 0 0.25 0"/>
<feBlend mode="normal" in2="BackgroundImageFix" result="effect1_dropShadow_3_141"/>
<feBlend mode="normal" in="SourceGraphic" in2="effect1_dropShadow_3_141" result="shape"/>
</filter>
<filter id="filter13_d_3_141" x="1080.38" y="12.1791" width="189.565" height="130.455" filterUnits="userSpaceOnUse" color-interpolation-filters="sRGB">
<feFlood flood-opacity="0" result="BackgroundImageFix"/>
<feColorMatrix in="SourceAlpha" type="matrix" values="0 0 0 0 0 0 0 0 0 0 0 0 0 0 0 0 0 0 127 0" result="hardAlpha"/>
<feOffset dy="4"/>
<feGaussianBlur stdDeviation="2"/>
<feComposite in2="hardAlpha" operator="out"/>
<feColorMatrix type="matrix" values="0 0 0 0 0 0 0 0 0 0 0 0 0 0 0 0 0 0 0.25 0"/>
<feBlend mode="normal" in2="BackgroundImageFix" result="effect1_dropShadow_3_141"/>
<feBlend mode="normal" in="SourceGraphic" in2="effect1_dropShadow_3_141" result="shape"/>
</filter>
<linearGradient id="paint0_linear_3_141" x1="0" y1="0" x2="1305.23" y2="224.666" gradientUnits="userSpaceOnUse">
<stop offset="0.354167" stop-color="#4500D6" stop-opacity="0.88"/>
<stop offset="0.541667" stop-color="#4500D6" stop-opacity="0.88"/>
<stop offset="0.651042" stop-color="#5200FF"/>
<stop offset="1" stop-color="#7E20C7"/>
</linearGradient>
<linearGradient id="paint1_linear_3_141" x1="450.148" y1="83.2456" x2="425.727" y2="126.674" gradientUnits="userSpaceOnUse">
<stop stop-color="#41873F"/>
<stop offset="0.3288" stop-color="#418B3D"/>
<stop offset="0.6352" stop-color="#419637"/>
<stop offset="0.9319" stop-color="#3FA92D"/>
<stop offset="1" stop-color="#3FAE2A"/>
</linearGradient>
<linearGradient id="paint2_linear_3_141" x1="435.559" y1="106.251" x2="503.964" y2="64.1325" gradientUnits="userSpaceOnUse">
<stop offset="0.1376" stop-color="#41873F"/>
<stop offset="0.4032" stop-color="#54A044"/>
<stop offset="0.7136" stop-color="#66B848"/>
<stop offset="0.9081" stop-color="#6CC04A"/>
</linearGradient>
<linearGradient id="paint3_linear_3_141" x1="408.981" y1="103.209" x2="470.134" y2="102.702" gradientUnits="userSpaceOnUse">
<stop offset="0.09192" stop-color="#6CC04A"/>
<stop offset="0.2864" stop-color="#66B848"/>
<stop offset="0.5968" stop-color="#54A044"/>
<stop offset="0.8624" stop-color="#41873F"/>
</linearGradient>
<linearGradient id="paint4_linear_3_141" x1="409.171" y1="125.972" x2="470.322" y2="125.465" gradientUnits="userSpaceOnUse">
<stop offset="0.09192" stop-color="#6CC04A"/>
<stop offset="0.2864" stop-color="#66B848"/>
<stop offset="0.5968" stop-color="#54A044"/>
<stop offset="0.8624" stop-color="#41873F"/>
</linearGradient>
<linearGradient id="paint5_linear_3_141" x1="478.869" y1="81.7604" x2="466.775" y2="155.222" gradientUnits="userSpaceOnUse">
<stop stop-color="#41873F"/>
<stop offset="0.3288" stop-color="#418B3D"/>
<stop offset="0.6352" stop-color="#419637"/>
<stop offset="0.9319" stop-color="#3FA92D"/>
<stop offset="1" stop-color="#3FAE2A"/>
</linearGradient>
<linearGradient id="paint6_linear_3_141" x1="872.327" y1="114.359" x2="872.327" y2="216.055" gradientUnits="userSpaceOnUse">
<stop stop-color="white" stop-opacity="0.35"/>
<stop offset="1" stop-color="white"/>
</linearGradient>
<linearGradient id="paint7_linear_3_141" x1="879.058" y1="209.489" x2="879.058" y2="278.306" gradientUnits="userSpaceOnUse">
<stop stop-color="white" stop-opacity="0.35"/>
<stop offset="1" stop-color="white"/>
</linearGradient>
<clipPath id="clip0_3_141">
<rect width="124.001" height="144.408" fill="white" transform="matrix(0.961809 -0.273723 0.26928 0.963062 487.518 200.926)"/>
</clipPath>
<clipPath id="clip1_3_141">
<rect width="112.627" height="118.348" rx="9" transform="matrix(0.999981 -0.0062578 0.00614821 0.999981 1145.57 195.142)" fill="white"/>
</clipPath>
<clipPath id="clip2_3_141">
<rect width="115.831" height="137.559" rx="14" transform="matrix(0.960862 -0.277028 0.27254 0.962144 136.425 72.5694)" fill="white"/>
</clipPath>
<clipPath id="clip3_3_141">
<rect width="99.3298" height="113.116" rx="15" transform="matrix(0.924311 -0.381641 0.37591 0.926656 2.00623 60.1729)" fill="white"/>
</clipPath>
</defs>
</svg>
